<?xml version="1.0" standalone="no"?>
<!DOCTYPE svg PUBLIC "-//W3C//DTD SVG 20010904//EN"
 "http://www.w3.org/TR/2001/REC-SVG-20010904/DTD/svg10.dtd">
<svg version="1.0" xmlns="http://www.w3.org/2000/svg"
 width="1321.000000pt" height="1225.000000pt" viewBox="0 0 1321.000000 1225.000000"
 preserveAspectRatio="xMidYMid meet">

<g transform="translate(0.000000,1225.000000) scale(0.100000,-0.100000)"
fill="#000000" stroke="none">
<path d="M7680 11534 c0 -283 60 -630 126 -732 14 -22 14 -26 -9 -60 -14 -21
-64 -80 -111 -132 -106 -116 -148 -196 -154 -287 -4 -63 -5 -64 -46 -87 -310
-175 -509 -292 -513 -302 -6 -16 66 -155 120 -233 58 -83 152 -178 199 -202
35 -18 66 -19 575 -19 l538 -1 -30 -25 c-51 -43 -153 -85 -243 -101 -73 -14
-101 -15 -182 -5 -213 27 -257 11 -381 -134 -296 -345 -615 -511 -1069 -555
-135 -13 -307 -8 -525 16 -410 43 -732 18 -1016 -81 -108 -37 -271 -114 -336
-158 -21 -15 -90 -42 -153 -62 -601 -185 -1068 -438 -1469 -798 -531 -477
-918 -1184 -1050 -1921 -22 -125 -47 -352 -39 -360 7 -7 168 64 328 146 705
357 1206 902 1501 1629 30 73 39 88 39 64 0 -58 -29 -198 -60 -284 -45 -128
-42 -174 22 -329 43 -107 52 -136 52 -193 1 -91 -28 -132 -159 -220 -112 -74
-156 -119 -173 -175 -12 -39 -33 -198 -53 -383 -6 -58 -13 -297 -16 -532 l-5
-426 -97 -8 c-53 -4 -163 -3 -246 1 -250 13 -292 5 -392 -69 -54 -39 -166
-164 -164 -183 0 -4 53 -16 118 -25 237 -35 237 -39 5 -48 -197 -8 -247 -23
-312 -98 -22 -25 -40 -48 -40 -53 0 -12 54 -17 547 -46 260 -15 469 -30 465
-34 -8 -8 -248 -29 -745 -64 -368 -26 -393 -31 -522 -92 -51 -24 -59 -32 -57
-51 3 -20 8 -22 32 -17 16 4 37 2 47 -4 29 -15 8490 -18 8506 -2 6 6 21 11 33
11 13 0 26 5 29 10 3 6 26 10 50 10 35 0 48 -5 64 -26 15 -18 22 -22 25 -13 2
8 7 22 10 32 3 9 17 22 31 29 32 14 73 -5 81 -39 6 -21 11 -23 38 -17 62 13
147 67 207 133 68 74 68 73 -36 86 -75 9 -59 20 71 46 52 10 108 26 124 34 38
19 77 62 89 96 l9 26 -92 6 c-50 3 -241 14 -423 23 -183 10 -333 21 -333 24 0
18 518 69 700 70 253 1 338 28 445 142 68 71 73 81 53 95 -7 4 -353 11 -768
14 -811 7 -882 11 -1161 65 -287 55 -407 131 -489 306 -85 186 -140 536 -140
903 0 278 19 491 76 868 14 93 24 172 22 177 -2 6 -803 -542 -832 -570 -4 -4
10 -54 32 -112 125 -323 176 -656 152 -990 -7 -93 -9 -198 -5 -234 17 -164 92
-280 223 -344 62 -30 72 -39 65 -56 -8 -22 -677 -21 -753 2 -71 21 -149 97
-178 175 -28 76 -44 256 -44 489 1 341 52 664 158 992 49 153 70 171 339 303
228 112 335 178 490 301 565 452 895 1048 1000 1809 22 159 31 531 16 677 -28
270 -91 491 -206 723 -121 242 -267 427 -489 619 -149 128 -209 191 -363 380
-242 297 -346 416 -433 499 -50 48 -97 87 -105 87 -20 0 -39 -70 -94 -350 -48
-246 -85 -381 -100 -363 -5 4 -13 33 -20 63 -31 147 -242 485 -390 624 l-31
30 0 -130z m-2511 -4816 c-10 -46 -15 -86 -11 -89 22 -21 402 -144 581 -189
320 -81 506 -104 838 -104 149 -1 274 1 277 4 3 3 -1 57 -8 120 -7 63 -11 118
-9 123 2 4 10 7 18 7 9 0 27 -42 52 -120 l38 -121 45 6 c25 4 46 8 47 8 1 1
-7 79 -18 172 -10 94 -19 173 -19 176 0 4 9 9 19 12 16 4 24 -11 54 -107 20
-61 45 -145 56 -186 31 -115 85 -650 116 -1155 30 -491 34 -513 135 -619 l50
-53 -61 -7 c-34 -3 -79 -6 -100 -6 -26 0 -38 -4 -37 -12 5 -23 -90 -26 -695
-27 -639 -1 -638 -1 -682 49 -11 12 -38 59 -60 104 -56 113 -88 135 -222 146
-193 17 -300 79 -396 231 -19 30 -46 82 -60 115 -30 71 -159 446 -155 448 2 1
22 10 46 21 38 16 42 21 37 45 -6 26 -3 28 112 73 65 25 177 67 248 92 184 65
455 201 435 218 -3 2 -174 55 -381 116 -363 108 -377 112 -410 98 -29 -12
-155 -122 -576 -505 -46 -41 -83 -79 -83 -83 0 -4 24 -39 53 -78 65 -86 119
-177 232 -391 157 -296 303 -490 447 -597 27 -19 47 -38 44 -41 -3 -3 -23 -8
-43 -12 -21 -3 -37 -11 -36 -17 6 -28 -147 -35 -743 -36 -124 0 -230 41 -345
133 -77 61 -109 110 -109 165 0 55 46 440 75 620 25 158 50 246 86 296 11 17
83 71 158 121 419 280 690 527 910 831 35 48 65 87 66 87 2 0 -5 -37 -16 -82z"/>
<path d="M10793 3625 c0 -22 2 -30 4 -17 2 12 2 30 0 40 -3 9 -5 -1 -4 -23z"/>
<path d="M10630 3620 c0 -13 5 -18 15 -14 8 4 15 12 15 20 0 8 -7 14 -15 14
-8 0 -15 -9 -15 -20z"/>
<path d="M10561 3594 c0 -11 3 -14 6 -6 3 7 2 16 -1 19 -3 4 -6 -2 -5 -13z"/>
<path d="M10468 3549 c-4 -42 5 -61 16 -33 9 23 7 62 -3 68 -5 3 -11 -12 -13
-35z"/>
<path d="M10696 3558 c-9 -40 -45 -231 -54 -277 -4 -25 -13 -46 -21 -49 -11
-4 -12 5 -7 43 4 26 10 54 13 61 3 8 -1 14 -10 14 -16 0 -27 -20 -27 -52 0
-11 -9 -36 -21 -54 -11 -18 -26 -61 -33 -95 -7 -35 -18 -65 -25 -67 -14 -5
-12 7 24 138 12 47 28 119 35 160 8 41 19 92 26 112 8 23 9 40 3 43 -17 11
-27 -5 -34 -55 -11 -80 -33 -154 -50 -166 -8 -6 -22 -29 -30 -50 l-15 -39 5
46 c6 45 -13 104 -31 97 -12 -4 -106 -385 -149 -603 -39 -194 -92 -426 -156
-678 -22 -88 -38 -161 -35 -164 12 -12 26 12 51 87 15 44 29 80 31 80 3 0 2
-22 -2 -50 -7 -55 0 -61 34 -30 l22 21 0 -34 c0 -19 -9 -60 -20 -92 -18 -53
-22 -136 -8 -151 10 -9 28 52 63 210 19 88 37 162 40 164 13 13 3 -126 -14
-200 -11 -46 -21 -110 -23 -143 -2 -50 0 -60 14 -63 12 -2 19 5 23 22 3 14 7
37 10 51 4 17 12 25 25 25 20 0 22 5 25 70 3 54 43 238 66 303 21 55 45 80 34
35 -3 -13 -18 -86 -34 -163 -17 -77 -42 -189 -55 -250 -30 -129 -31 -145 -10
-145 12 0 14 -7 9 -30 -6 -29 6 -42 20 -21 15 25 81 305 96 411 6 41 27 163
46 270 19 107 39 218 44 245 38 219 183 859 208 923 16 41 18 52 7 52 -16 0
-38 -50 -61 -141 -9 -35 -22 -71 -29 -79 -7 -8 -41 -160 -76 -338 -34 -177
-66 -324 -70 -327 -8 -5 -4 24 26 205 14 80 31 186 39 235 29 191 46 287 65
362 21 85 26 143 10 143 -5 0 -12 -10 -14 -22z m-235 -1005 c-27 -160 -42
-234 -52 -253 -9 -16 -9 -14 16 135 39 232 45 259 52 252 3 -4 -4 -64 -16
-134z"/>
<path d="M6440 3561 c0 -5 5 -13 10 -16 6 -3 10 -2 10 4 0 5 -4 13 -10 16 -5
3 -10 2 -10 -4z"/>
<path d="M1927 3520 c3 -11 10 -23 16 -27 7 -4 8 0 4 11 -4 10 -7 22 -7 27 0
5 -4 9 -9 9 -5 0 -7 -9 -4 -20z"/>
<path d="M2070 3531 c-19 -4 -34 -11 -34 -16 1 -6 4 -35 8 -65 l6 -55 -22 40
c-20 36 -23 38 -26 17 -3 -18 -6 -21 -17 -12 -37 31 -49 -31 -24 -125 16 -62
16 -73 3 -92 -8 -12 -20 -20 -28 -17 -9 4 -18 -9 -29 -38 -8 -25 -82 -141
-165 -259 -130 -185 -325 -482 -334 -510 -2 -5 -39 -18 -83 -30 -86 -22 -205
-70 -205 -81 0 -5 27 -8 60 -8 33 0 60 -4 60 -9 0 -7 -60 -34 -120 -54 -10 -4
-9 -6 5 -7 17 -1 16 -3 -7 -16 -33 -17 -37 -29 -8 -21 23 6 27 -12 8 -32 -11
-11 -5 -12 32 -6 25 4 50 8 55 8 36 1 55 -5 55 -15 0 -7 -27 -60 -59 -118 -32
-58 -55 -109 -51 -114 5 -5 6 -15 3 -22 -11 -29 17 -13 33 19 48 97 108 196
115 191 5 -3 6 1 4 9 -6 14 31 54 41 44 5 -5 -131 -238 -161 -277 -13 -16 -35
-117 -35 -158 l0 -24 36 21 c19 12 38 21 41 21 7 0 -2 -68 -13 -94 -5 -14 -3
-17 7 -14 13 4 67 98 82 143 11 34 52 100 153 250 l97 144 61 5 c33 3 117 10
186 16 138 12 393 31 455 33 l39 2 37 -115 c21 -63 43 -141 50 -173 11 -54 14
-58 35 -53 17 5 24 2 24 -8 0 -15 18 -32 25 -24 2 2 0 20 -4 41 -9 39 3 53 13
15 12 -50 89 -180 109 -188 27 -10 37 -4 37 21 0 11 5 17 10 14 15 -9 12 34
-6 95 -8 29 -13 62 -10 74 3 11 -2 52 -10 91 -8 38 -17 78 -18 88 -2 9 -1 17
3 17 10 0 57 -99 65 -137 8 -34 26 -55 26 -30 0 7 -20 74 -44 148 -24 74 -48
152 -52 173 l-7 39 67 -6 c36 -3 73 -4 81 -1 26 10 16 30 -22 44 l-38 14 38 6
c51 7 48 24 -5 28 -24 2 -47 7 -52 13 -6 5 -33 9 -62 9 l-52 0 -27 88 c-14 48
-46 141 -70 207 -72 198 -112 316 -138 412 l-25 92 55 73 c31 40 67 85 81 100
16 18 23 34 19 47 -3 12 -1 24 4 27 14 8 11 34 -3 28 -7 -3 -42 -43 -78 -89
-67 -87 -99 -113 -59 -49 15 25 18 35 8 32 -8 -2 -23 -22 -33 -44 -10 -21 -21
-33 -23 -26 -3 7 7 32 21 57 31 52 19 68 -18 24 l-26 -31 -15 36 c-8 19 -15
42 -15 50 0 7 -8 16 -19 19 -12 3 -21 17 -25 40 -4 19 -14 38 -22 41 -9 3 -16
5 -17 5 -1 -1 -18 -5 -37 -8z m249 -236 c-34 -47 -72 -86 -54 -55 13 22 77
100 82 100 2 0 -10 -20 -28 -45z m-510 -359 c-54 -86 -211 -316 -216 -316 -3
0 11 28 30 63 48 86 208 320 214 313 3 -3 -10 -30 -28 -60z m304 -123 c55
-171 108 -355 103 -360 -2 -3 -74 -7 -158 -10 -84 -3 -188 -8 -231 -12 -43 -4
-80 -5 -82 -1 -2 3 36 63 83 133 166 244 244 357 247 357 2 0 19 -48 38 -107z
m-332 -106 c-10 -9 -11 -8 -5 6 3 10 9 15 12 12 3 -3 0 -11 -7 -18z m12 -154
c-43 -65 -82 -121 -88 -125 -20 -14 -16 12 6 44 50 73 154 207 157 203 2 -1
-32 -56 -75 -122z m-14 53 c-22 -20 -22 -20 -6 0 9 11 17 27 18 35 0 11 2 11
6 0 3 -7 -5 -23 -18 -35z m-56 -51 c-3 -9 -8 -14 -10 -11 -3 3 -2 9 2 15 9 16
15 13 8 -4z m720 -95 c3 -11 1 -18 -4 -14 -5 3 -9 12 -9 20 0 20 7 17 13 -6z
m-929 -44 c-3 -9 -10 -16 -15 -16 -6 0 -5 9 1 21 13 24 24 20 14 -5z m513 8
c-3 -3 -12 -4 -19 -1 -8 3 -5 6 6 6 11 1 17 -2 13 -5z m50 0 c-3 -3 -12 -4
-19 -1 -8 3 -5 6 6 6 11 1 17 -2 13 -5z m381 -19 c-3 -3 -9 2 -12 12 -6 14 -5
15 5 6 7 -7 10 -15 7 -18z m-318 -4 c0 -4 -69 -12 -152 -16 -84 -4 -183 -10
-221 -14 -37 -4 -63 -3 -59 1 7 7 104 16 312 31 95 7 120 7 120 -2z m190 -35
c0 -11 -19 -15 -25 -6 -3 5 1 10 9 10 9 0 16 -2 16 -4z m7 -42 c-3 -3 -12 -4
-19 -1 -8 3 -5 6 6 6 11 1 17 -2 13 -5z m-268 -28 c-2 -2 -78 -12 -169 -20
-91 -9 -187 -19 -215 -22 -27 -3 -46 -2 -42 3 11 10 262 40 356 42 41 0 72 -1
70 -3z m291 -80 c0 -2 9 -48 20 -101 11 -54 18 -100 16 -102 -2 -2 -13 31 -24
74 -34 127 -35 133 -23 133 6 0 11 -2 11 -4z m89 -131 c12 -55 24 -111 27
-124 4 -21 3 -23 -9 -12 -9 6 -17 33 -20 59 -2 26 -14 79 -25 119 -11 40 -17
75 -14 78 10 10 19 -17 41 -120z m-1089 -157 c-34 -57 -59 -92 -55 -79 12 40
105 194 113 186 2 -2 -24 -50 -58 -107z m-94 -25 c-23 -42 -36 -59 -36 -48 0
12 38 75 45 75 3 0 -1 -12 -9 -27z"/>
<path d="M2295 3510 c-9 -16 -13 -30 -11 -30 3 0 12 14 21 30 9 17 13 30 11
30 -3 0 -12 -13 -21 -30z"/>
<path d="M10637 3524 c-4 -4 -7 -14 -7 -23 0 -11 3 -12 11 -4 6 6 10 16 7 23
-2 6 -7 8 -11 4z"/>
<path d="M2334 3498 l-19 -23 23 19 c21 18 27 26 19 26 -2 0 -12 -10 -23 -22z"/>
<path d="M6370 3505 c0 -8 7 -15 15 -15 8 0 15 7 15 15 0 8 -7 15 -15 15 -8 0
-15 -7 -15 -15z"/>
<path d="M11360 3505 c0 -8 7 -15 15 -15 8 0 15 7 15 15 0 8 -7 15 -15 15 -8
0 -15 -7 -15 -15z"/>
<path d="M6496 3503 c-3 -3 -6 -15 -6 -25 0 -12 -6 -18 -17 -16 -12 2 -19 -5
-21 -20 -2 -16 -8 -22 -18 -18 -18 7 -18 -15 0 -59 8 -19 11 -35 6 -35 -4 0
-11 6 -13 13 -3 6 -6 2 -6 -11 -1 -12 15 -64 35 -116 l36 -93 -69 -104 c-37
-57 -120 -180 -182 -274 -254 -376 -301 -448 -301 -456 0 -4 -30 -17 -67 -29
-38 -11 -81 -27 -98 -35 -27 -14 -28 -15 -5 -11 14 2 46 9 72 17 26 7 50 10
54 6 12 -12 -18 -37 -45 -38 -14 0 -35 -4 -46 -9 -15 -7 -10 -9 23 -9 l42 -1
0 -39 0 -40 -77 -25 c-71 -23 -64 -27 18 -10 l31 7 -48 -91 c-26 -51 -45 -94
-42 -98 4 -3 16 0 29 6 19 11 21 10 16 -3 -6 -16 -19 -68 -31 -120 -5 -19 -3
-26 4 -22 5 3 10 1 10 -5 0 -24 20 4 61 87 37 73 44 83 47 60 4 -32 -5 -51
-82 -171 -58 -92 -73 -131 -32 -84 16 17 27 23 34 16 6 -6 17 6 32 36 12 25
26 46 31 46 4 0 34 43 65 96 32 54 65 99 75 101 11 3 44 45 75 93 31 49 63 91
72 95 9 3 81 17 160 30 78 13 188 35 245 49 56 14 130 28 164 32 61 6 61 6 77
-25 9 -17 31 -75 49 -128 31 -92 73 -173 90 -173 15 0 6 28 -36 110 -42 82
-64 140 -52 140 3 0 19 -29 35 -64 41 -93 96 -175 124 -186 18 -6 33 -32 61
-100 40 -96 50 -109 68 -91 7 7 14 7 24 -1 12 -9 13 -7 8 15 -6 23 -5 26 11
20 14 -5 16 -3 10 13 -5 10 -11 28 -14 39 -5 18 -3 18 11 6 31 -25 30 13 -2
91 -29 71 -81 215 -81 224 0 2 7 4 15 4 8 0 15 7 15 15 0 8 -4 15 -10 15 -5 0
-17 17 -26 38 -36 85 -36 80 1 98 46 21 44 28 -5 21 -33 -4 -42 -2 -51 14 -14
26 -1 30 109 32 57 1 96 7 104 15 10 9 0 12 -48 12 -112 0 -94 29 28 44 29 3
56 14 72 29 14 14 26 26 26 28 0 3 -55 1 -122 -4 -68 -4 -148 -6 -178 -5 -54
3 -54 3 -62 40 -8 39 -66 211 -118 348 -18 47 -63 171 -100 275 -79 221 -116
311 -127 308 -4 -1 -10 -10 -14 -20 -6 -16 -8 -15 -19 9 -17 37 -30 26 -23
-20 6 -37 6 -37 -14 -19 -12 10 -26 38 -33 63 -13 45 -22 58 -34 47z m145
-234 c17 -35 41 -121 35 -126 -9 -9 -10 -6 -39 75 -14 40 -20 71 -14 69 6 -2
14 -10 18 -18z m-91 -259 c0 -11 -7 -20 -15 -20 -15 0 -21 21 -8 33 12 13 23
7 23 -13z m220 -5 c0 -8 -2 -15 -4 -15 -2 0 -6 7 -10 15 -3 8 -1 15 4 15 6 0
10 -7 10 -15z m-270 -105 c0 -5 -5 -10 -11 -10 -5 0 -7 5 -4 10 3 6 8 10 11
10 2 0 4 -4 4 -10z m90 -14 c0 -3 -4 -8 -10 -11 -5 -3 -10 -1 -10 4 0 6 5 11
10 11 6 0 10 -2 10 -4z m-145 -77 c-9 -17 -19 -28 -22 -25 -6 6 23 56 32 56 3
0 -2 -14 -10 -31z m140 -36 c9 -21 36 -94 60 -163 24 -69 47 -132 50 -141 5
-14 -13 -17 -132 -28 -76 -6 -158 -14 -182 -18 -41 -6 -44 -4 -37 13 8 21 218
374 223 374 1 0 10 -17 18 -37z m183 -13 c6 -16 7 -30 2 -30 -6 0 -30 52 -30
67 0 14 20 -12 28 -37z m116 -15 c3 -8 1 -15 -4 -15 -6 0 -10 7 -10 15 0 8 2
15 4 15 2 0 6 -7 10 -15z m-493 -102 c-18 -34 -122 -198 -131 -207 -5 -5 -12
-7 -15 -4 -9 8 138 228 152 228 2 0 -1 -8 -6 -17z m304 -77 c8 -27 13 -52 10
-54 -6 -6 -42 74 -50 113 -6 29 -6 29 10 10 8 -11 22 -42 30 -69z m161 -41
c27 -62 28 -65 16 -65 -8 0 -52 96 -52 113 0 20 14 2 36 -48z m-681 -85 c-15
-23 -29 -39 -32 -36 -3 3 7 24 22 46 36 52 44 44 10 -10z m-120 -28 c-35 -61
-55 -83 -55 -62 0 19 79 134 87 127 2 -3 -12 -32 -32 -65z m858 -16 c6 -16 -2
-28 -14 -20 -12 7 -11 34 0 34 5 0 11 -6 14 -14z m-128 -16 c3 -5 1 -10 -4
-10 -6 0 -11 5 -11 10 0 6 2 10 4 10 3 0 8 -4 11 -10z m55 0 c0 -5 -4 -10 -10
-10 -5 0 -10 5 -10 10 0 6 5 10 10 10 6 0 10 -4 10 -10z m-235 -10 c3 -5 2
-10 -2 -10 -17 0 -248 -30 -271 -36 -17 -3 -23 -1 -20 8 3 8 45 19 114 29 133
20 171 22 179 9z m205 -50 c0 -5 -4 -10 -10 -10 -5 0 -10 5 -10 10 0 6 5 10
10 10 6 0 10 -4 10 -10z m-868 -92 c-7 -7 -12 -8 -12 -2 0 14 12 26 19 19 2
-3 -1 -11 -7 -17z m902 -34 c10 -38 0 -41 -12 -5 -6 17 -7 31 -3 31 5 0 12
-12 15 -26z m251 -44 c3 -5 1 -10 -4 -10 -6 0 -11 5 -11 10 0 6 2 10 4 10 3 0
8 -4 11 -10z m-955 -10 c0 -5 -5 -10 -11 -10 -5 0 -7 5 -4 10 3 6 8 10 11 10
2 0 4 -4 4 -10z m57 4 c-3 -3 -12 -4 -19 -1 -8 3 -5 6 6 6 11 1 17 -2 13 -5z"/>
<path d="M11480 3484 c0 -20 -4 -24 -19 -19 -15 4 -20 0 -23 -17 -2 -13 -8
-23 -15 -23 -22 0 -24 -13 -9 -44 18 -34 22 -66 6 -41 -23 35 -9 -35 25 -124
l35 -94 -94 -144 c-52 -78 -152 -226 -221 -328 -70 -102 -154 -227 -188 -279
l-62 -95 -70 -21 c-38 -12 -79 -27 -90 -34 -22 -14 -29 -15 77 11 27 6 51 9
54 5 12 -12 -18 -37 -45 -38 -14 0 -35 -4 -46 -9 -16 -7 -11 -9 21 -9 39 -1
41 -2 42 -36 2 -40 -2 -43 -88 -72 -60 -21 -48 -23 31 -7 l31 7 -48 -91 c-49
-90 -53 -113 -16 -93 20 11 20 10 1 -62 -21 -83 -22 -90 -10 -83 5 4 11 0 14
-6 2 -7 23 25 46 71 32 62 45 81 54 72 13 -13 -8 -57 -83 -171 -51 -79 -68
-127 -25 -75 14 17 25 24 25 16 0 -22 31 8 47 47 7 17 17 32 22 32 5 0 37 47
71 104 38 64 67 103 75 100 8 -3 34 29 66 82 63 102 69 105 229 129 63 10 169
31 234 46 66 16 148 32 183 35 l63 7 18 -44 c11 -24 32 -82 47 -128 29 -89 79
-179 89 -162 7 11 -30 109 -50 132 -19 21 -75 189 -63 189 5 0 9 -8 9 -18 0
-24 81 -191 121 -248 17 -25 41 -49 54 -54 16 -6 30 -27 44 -65 36 -95 61
-137 77 -131 9 3 20 6 26 6 6 0 8 8 5 19 -3 12 1 18 12 17 17 -1 18 6 5 38 -6
15 -4 18 9 13 30 -11 28 11 -9 105 -68 176 -78 210 -60 220 19 11 21 28 3 28
-7 0 -21 24 -31 53 -10 28 -21 58 -23 65 -3 6 1 12 9 12 8 0 23 7 34 16 18 15
17 15 -18 10 -31 -4 -40 -1 -49 15 -6 12 -9 23 -6 25 2 3 50 6 105 7 65 1 106
6 114 15 10 9 0 12 -48 12 -58 0 -96 12 -77 23 5 3 40 11 77 17 56 9 126 41
126 58 0 2 -79 2 -177 0 l-176 -3 -7 25 c-30 103 -70 224 -112 335 -28 72 -74
200 -104 285 -63 181 -125 330 -136 330 -4 0 -8 -9 -8 -20 0 -11 -4 -20 -10
-20 -5 0 -10 6 -10 14 0 7 -7 20 -16 27 -15 12 -16 10 -9 -29 6 -35 4 -41 -8
-36 -8 3 -20 19 -26 35 -6 16 -16 43 -22 59 -14 37 -29 39 -29 4z m151 -215
c4 -8 14 -38 22 -66 24 -83 2 -72 -27 13 -14 44 -20 74 -14 72 6 -2 15 -11 19
-19z m-91 -265 c0 -8 -7 -14 -15 -14 -15 0 -21 21 -9 33 10 9 24 -2 24 -19z
m220 0 c0 -8 -4 -12 -10 -9 -5 3 -10 10 -10 16 0 5 5 9 10 9 6 0 10 -7 10 -16z
m-326 -196 c-10 -20 -19 -28 -22 -20 -2 7 4 22 14 33 25 27 27 24 8 -13z m189
-168 c30 -85 58 -162 61 -171 6 -14 -6 -17 -86 -23 -51 -4 -130 -12 -175 -17
-46 -6 -87 -9 -93 -7 -6 2 36 80 93 173 134 221 130 216 138 207 4 -4 31 -77
62 -162z m136 100 c0 -22 -2 -21 -14 10 -18 47 -18 58 0 34 8 -10 14 -30 14
-44z m-368 7 c-10 -9 -11 -8 -5 6 3 10 9 15 12 12 3 -3 0 -11 -7 -18z m479 -2
c0 -8 -2 -15 -4 -15 -2 0 -6 7 -10 15 -3 8 -1 15 4 15 6 0 10 -7 10 -15z
m-556 -208 c-57 -92 -84 -124 -84 -102 0 11 142 217 146 212 2 -2 -26 -52 -62
-110z m353 71 c26 -55 36 -98 24 -98 -10 0 -51 101 -51 125 0 24 7 17 27 -27z
m181 -90 c12 -28 17 -50 11 -53 -5 -4 -12 2 -16 12 -3 10 -12 33 -19 52 -30
74 -9 65 24 -11z m-672 -55 c-20 -38 -45 -70 -46 -58 0 11 48 85 56 85 2 0 -2
-12 -10 -27z m-96 13 c0 -14 -85 -137 -88 -128 -4 12 69 131 81 132 4 0 7 -2
7 -4z m820 -87 c0 -5 -4 -9 -10 -9 -5 0 -10 7 -10 16 0 8 5 12 10 9 6 -3 10
-10 10 -16z m-630 -9 c0 -5 -5 -10 -11 -10 -5 0 -7 5 -4 10 3 6 8 10 11 10 2
0 4 -4 4 -10z m505 0 c3 -5 1 -10 -4 -10 -6 0 -11 5 -11 10 0 6 2 10 4 10 3 0
8 -4 11 -10z m55 0 c0 -5 -4 -10 -10 -10 -5 0 -10 5 -10 10 0 6 5 10 10 10 6
0 10 -4 10 -10z m-235 -10 c3 -5 2 -10 -2 -10 -15 0 -247 -30 -278 -36 -25 -5
-28 -4 -17 7 7 8 61 21 120 30 131 20 169 22 177 9z m205 -50 c0 -5 -4 -10
-10 -10 -5 0 -10 5 -10 10 0 6 5 10 10 10 6 0 10 -4 10 -10z m220 -11 c0 -6
-4 -7 -10 -4 -5 3 -10 11 -10 16 0 6 5 7 10 4 6 -3 10 -11 10 -16z m-1087 -74
c-3 -9 -8 -14 -10 -11 -3 3 -2 9 2 15 9 16 15 13 8 -4z m254 -91 c-3 -3 -12
-4 -19 -1 -8 3 -5 6 6 6 11 1 17 -2 13 -5z"/>
<path d="M3489 3488 c-9 -7 -21 -46 -27 -86 -15 -88 -25 -110 -54 -114 -15 -2
-26 -15 -36 -48 -13 -39 -16 -42 -23 -22 -13 35 -27 26 -42 -25 -12 -39 -18
-47 -35 -45 -11 2 -23 -2 -27 -8 -3 -5 -13 -10 -21 -10 -16 0 -19 31 -3 47 12
12 -2 25 -16 15 -6 -4 -18 -24 -27 -45 -10 -21 -25 -40 -33 -43 -26 -10 -40
-76 -85 -384 -35 -242 -106 -599 -125 -630 -3 -6 -21 -10 -38 -11 -18 0 -41
-4 -51 -8 -33 -13 7 -22 46 -10 41 11 38 12 38 -6 0 -8 -17 -24 -37 -35 -77
-40 -99 -74 -34 -52 47 17 58 -4 42 -81 -7 -34 -18 -65 -24 -70 -15 -9 33 -49
51 -42 8 3 30 8 51 11 l37 6 -1 -89 c-1 -48 0 -92 3 -96 2 -5 13 -1 23 9 18
17 19 15 19 -40 0 -52 2 -57 27 -67 14 -5 31 -8 36 -6 6 2 12 47 14 103 2 54
8 122 14 150 14 74 7 72 409 123 30 3 60 10 66 13 6 4 43 4 82 -1 40 -4 72 -4
72 1 0 4 -17 9 -37 9 -73 2 118 31 217 33 108 2 142 10 133 32 -3 10 2 14 18
14 34 0 69 11 69 21 0 5 -33 9 -72 10 -40 0 -91 4 -113 8 -37 7 -34 8 34 12
50 3 77 10 85 20 6 9 33 19 60 22 100 14 64 37 -58 37 -66 0 -92 4 -100 15
-10 12 -25 12 -121 0 -60 -7 -180 -18 -265 -25 -159 -11 -283 -24 -357 -36
-53 -8 -53 -9 -14 146 16 63 32 140 34 170 3 30 12 87 20 125 16 71 39 197 58
315 6 36 15 83 21 105 10 39 31 149 41 210 3 17 19 84 35 150 30 120 48 215
40 215 -2 0 -11 -6 -19 -12z m-123 -462 c-15 -74 -35 -130 -36 -96 0 24 27
156 35 169 15 25 15 2 1 -73z m-126 -536 c0 -26 -43 -206 -51 -215 -11 -11
-11 -11 1 61 23 127 32 164 41 164 5 0 9 -5 9 -10z m190 -424 c0 -2 -11 -6
-25 -8 -13 -3 -22 -1 -19 3 5 9 44 13 44 5z m520 -46 c0 -6 -28 -10 -64 -10
-36 0 -68 5 -71 10 -4 6 20 10 64 10 41 0 71 -4 71 -10z m-225 -7 c-128 -6
-163 -13 -168 -34 -4 -15 -13 -19 -49 -18 l-43 1 38 8 c20 4 41 10 45 15 9 10
-148 -2 -256 -19 -46 -7 -80 -10 -75 -6 9 8 266 48 348 53 28 2 88 3 135 3 52
0 62 -1 25 -3z m-345 -69 c-145 -23 -195 -25 -100 -5 47 10 108 19 135 19 42
0 37 -2 -35 -14z m247 0 c-3 -3 -12 -4 -19 -1 -8 3 -5 6 6 6 11 1 17 -2 13 -5z
m-17 -13 c16 -4 21 -9 13 -14 -17 -11 -205 -44 -288 -51 l-70 -6 50 14 c28 8
101 22 164 32 62 10 109 20 103 22 -6 2 -69 -6 -140 -17 -136 -22 -159 -25
-150 -15 9 8 216 42 258 42 19 0 46 -3 60 -7z m-605 -91 c-28 -12 -67 -12 -60
0 3 6 23 10 43 9 30 0 33 -2 17 -9z m97 -67 c2 -49 0 -92 -8 -123 -6 -25 -6
-25 -20 9 -14 34 -19 132 -7 144 18 18 33 5 35 -30z"/>
<path d="M9047 3465 c-19 -40 -21 -55 -8 -55 8 0 33 81 27 87 -1 2 -10 -13
-19 -32z"/>
<path d="M9173 3458 c-12 -15 -29 -71 -41 -138 -7 -42 -10 -45 -42 -48 -19 -2
-41 -8 -47 -14 -17 -14 -18 13 -1 30 6 6 9 15 5 18 -3 4 -22 -9 -42 -29 -21
-21 -49 -37 -70 -41 -34 -7 -60 -38 -48 -58 2 -5 -12 -8 -31 -8 -25 0 -36 -4
-36 -15 0 -8 9 -15 19 -15 34 0 32 -17 -2 -26 l-32 -8 43 -3 c49 -5 54 -21 22
-77 -10 -20 -15 -38 -11 -41 5 -2 -8 -71 -28 -152 l-37 -148 -35 -3 c-19 -2
-39 -9 -44 -16 -6 -8 -38 -17 -73 -21 -38 -4 -60 -11 -56 -17 4 -6 29 -8 66
-4 41 5 58 4 53 -3 -3 -6 -12 -11 -19 -11 -7 0 -25 -9 -39 -20 -14 -11 -32
-20 -41 -20 -9 0 -16 -4 -16 -10 0 -5 11 -10 23 -10 37 0 40 -12 7 -26 -36
-16 -39 -34 -5 -34 16 0 23 -4 19 -14 -4 -9 7 -15 38 -19 57 -8 71 -29 63 -92
-14 -121 -58 -352 -70 -377 -7 -15 -9 -28 -4 -30 20 -7 -5 -48 -37 -60 -37
-13 -35 -32 2 -25 21 4 24 0 24 -24 0 -16 5 -29 11 -29 7 0 9 -10 5 -24 -3
-14 -1 -28 5 -31 15 -10 21 0 28 42 5 32 11 39 33 41 27 3 27 3 21 -49 -5 -42
-3 -51 8 -47 8 2 16 15 17 29 2 13 8 29 14 34 7 7 9 2 5 -15 -22 -98 -30 -150
-23 -157 10 -11 26 18 26 49 0 34 17 78 29 78 5 0 3 -21 -5 -47 -18 -59 -18
-106 -1 -101 6 3 18 40 25 84 8 43 16 89 18 101 3 16 13 23 46 27 24 4 70 11
103 16 215 34 314 45 495 55 118 7 152 14 144 27 -4 6 -33 9 -75 6 -38 -3 -69
-2 -69 2 0 9 25 20 45 20 8 0 26 5 40 10 22 8 25 13 16 24 -10 12 -4 15 29 21
36 6 67 25 41 25 -6 0 -11 5 -11 11 0 6 9 8 23 3 12 -3 19 -3 14 1 -10 12 23
45 45 45 10 0 18 5 18 10 0 6 -7 10 -15 10 -8 0 -15 5 -15 10 0 6 27 10 62 10
47 0 59 3 50 12 -28 28 -395 19 -751 -18 -79 -8 -145 -13 -148 -11 -2 2 10 64
25 138 16 74 32 151 36 171 5 30 12 39 31 43 14 3 36 7 48 10 13 2 143 11 288
20 145 8 281 18 302 21 42 7 41 24 -3 24 -43 0 -49 32 -13 75 15 18 37 34 48
35 17 2 16 3 -5 10 -14 4 -95 9 -180 10 -112 1 -145 4 -120 11 19 5 109 8 200
7 157 -2 210 4 210 21 0 9 -310 24 -350 17 -14 -2 -88 -7 -165 -10 -77 -4
-162 -9 -189 -13 l-49 -6 7 39 c14 79 60 269 66 277 21 24 568 61 776 52 147
-7 219 -2 209 15 -3 5 -40 12 -83 16 -65 6 -73 9 -50 16 16 6 25 15 22 22 -5
14 28 30 84 41 17 4 32 11 32 15 0 10 -62 29 -100 31 l-25 1 28 11 c15 6 27
14 27 18 0 4 -46 12 -102 19 -103 13 -616 8 -717 -7 l-44 -6 7 39 c17 94 17
119 -2 142 -15 19 -20 21 -29 10z m677 -198 c-18 -11 -164 -11 -200 0 -16 5
20 8 95 9 81 0 115 -2 105 -9z m-432 -37 c-21 -2 -57 -2 -80 0 -24 2 -7 4 37
4 44 0 63 -2 43 -4z m365 -10 c-13 -2 -33 -2 -45 0 -13 2 -3 4 22 4 25 0 35
-2 23 -4z m12 -43 c-22 -5 -105 -13 -185 -20 -80 -6 -199 -18 -265 -26 -145
-17 -193 -18 -178 -3 10 10 173 32 328 44 44 3 81 8 84 11 2 2 61 3 130 3 92
-1 115 -3 86 -9z m155 -38 c0 -14 -37 -22 -105 -22 -33 0 -138 -5 -232 -12
-156 -10 -197 -9 -181 7 20 20 518 46 518 27z m-852 -167 c-4 -11 -17 -71 -27
-133 -19 -111 -25 -131 -37 -120 -6 7 41 282 52 300 12 18 23 -24 12 -47z
m-87 -248 c-8 -8 -11 -7 -11 4 0 20 13 34 18 19 3 -7 -1 -17 -7 -23z m522
-164 c-7 -2 -19 -2 -25 0 -7 3 -2 5 12 5 14 0 19 -2 13 -5z m-563 -103 c0 -5
-2 -10 -4 -10 -3 0 -8 5 -11 10 -3 6 -1 10 4 10 6 0 11 -4 11 -10z m-174 -27
c-3 -10 -19 -88 -36 -173 -17 -85 -36 -159 -42 -165 -7 -7 -9 -3 -4 16 3 14
17 93 32 175 14 82 28 152 30 156 10 15 25 8 20 -9z m41 -105 c-3 -8 -6 -5 -6
6 -1 11 2 17 5 13 3 -3 4 -12 1 -19z m618 -198 c-11 -5 -56 -9 -100 -9 -84 -1
-293 -18 -333 -27 -14 -3 -21 -1 -18 5 9 13 73 23 216 31 183 10 259 10 235 0z
m-447 -187 c-10 -2 -28 -2 -40 0 -13 2 -5 4 17 4 22 1 32 -1 23 -4z m-191 -49
c-3 -3 -12 -4 -19 -1 -8 3 -5 6 6 6 11 1 17 -2 13 -5z m-7 -33 c0 -6 -4 -13
-10 -16 -5 -3 -10 1 -10 9 0 9 5 16 10 16 6 0 10 -4 10 -9z"/>
<path d="M2320 3445 c-7 -9 -10 -18 -7 -21 3 -3 10 4 17 15 13 25 8 27 -10 6z"/>
<path d="M10490 3429 c0 -18 2 -19 15 -9 8 7 15 16 15 21 0 5 -7 9 -15 9 -9 0
-15 -9 -15 -21z"/>
<path d="M9098 3434 c-5 -4 -8 -23 -8 -43 1 -30 2 -33 11 -18 11 19 8 73 -3
61z"/>
<path d="M3375 3419 c-28 -76 -44 -133 -39 -138 13 -13 42 42 49 90 7 48 1 77
-10 48z"/>
<path d="M8971 3354 c0 -11 3 -14 6 -6 3 7 2 16 -1 19 -3 4 -6 -2 -5 -13z"/>
<path d="M8088 3290 c-18 -32 -38 -40 -38 -15 0 20 -10 19 -35 -5 -12 -11 -42
-23 -68 -26 -39 -6 -47 -4 -47 10 0 9 -7 16 -15 16 -8 0 -15 -6 -15 -14 0 -8
-4 -17 -8 -20 -5 -3 -80 -21 -169 -40 -262 -57 -421 -98 -440 -111 -15 -11
-15 -15 -4 -29 7 -9 23 -16 34 -16 16 0 18 -3 9 -12 -15 -15 -15 -28 -1 -28
16 0 36 -24 31 -38 -3 -9 17 -12 78 -12 51 0 79 -4 75 -10 -3 -5 -24 -10 -46
-10 -39 0 -53 -15 -23 -27 15 -6 121 13 269 47 44 10 94 21 111 25 l31 6 -8
-48 c-13 -73 -58 -373 -75 -503 -17 -134 -42 -282 -79 -465 -14 -71 -29 -149
-34 -172 -4 -24 -4 -43 0 -43 5 0 9 -14 9 -31 0 -25 3 -29 13 -20 8 6 17 7 21
3 4 -4 14 2 22 12 18 25 18 12 -2 -53 -8 -29 -13 -56 -10 -59 10 -9 18 4 37
60 9 29 18 47 18 41 2 -25 31 -13 31 12 0 18 5 25 19 25 21 0 30 17 32 58 1
17 3 21 6 10 6 -26 22 -22 33 8 11 28 30 24 30 -7 0 -26 18 -24 25 4 5 22 26
177 45 347 30 256 87 617 136 847 6 31 8 32 73 40 36 4 132 8 213 8 132 0 147
2 152 18 2 9 14 17 25 17 12 0 21 6 21 15 0 11 -11 15 -37 15 -35 0 -36 1 -17
14 11 8 33 16 49 18 19 2 30 9 30 18 0 11 -17 17 -60 22 -69 9 -100 20 -38 14
61 -6 103 7 141 41 17 17 32 34 32 37 0 3 -31 6 -69 6 -39 0 -73 5 -76 11 -5
6 -35 8 -88 4 -140 -10 -287 -26 -302 -32 -11 -4 -14 1 -13 17 4 34 -15 34
-34 0z m129 -66 c-11 -11 -77 -22 -82 -14 -3 5 12 11 32 13 21 2 42 4 47 5 5
1 7 -1 3 -4z m-532 -64 c-27 -12 -43 -12 -25 0 8 5 22 9 30 9 10 0 8 -3 -5 -9z
m765 -39 c-8 -5 -49 -11 -90 -15 -41 -4 -91 -9 -110 -11 l-35 -5 34 11 c27 8
132 23 201 27 13 1 13 0 0 -7z m38 -38 c-10 -2 -26 -2 -35 0 -10 3 -2 5 17 5
19 0 27 -2 18 -5z m-693 -32 c-15 -13 -65 -23 -65 -12 0 5 12 12 28 14 15 2
31 5 37 6 6 0 6 -2 0 -8z m-381 -31 c-10 -4 -21 -6 -24 -3 -8 7 24 22 34 16 5
-4 1 -10 -10 -13z m191 1 c-16 -15 -124 -39 -200 -45 -79 -6 -63 -1 100 33
115 23 111 23 100 12z m417 -103 c-8 -8 -9 -4 -5 13 4 13 8 18 11 10 2 -7 -1
-18 -6 -23z m-12 -68 c-5 -22 -8 -27 -9 -13 -1 21 9 56 14 51 2 -2 0 -19 -5
-38z m-83 8 c-3 -8 -6 -5 -6 6 -1 11 2 17 5 13 3 -3 4 -12 1 -19z m-10 -40
c-3 -8 -6 -5 -6 6 -1 11 2 17 5 13 3 -3 4 -12 1 -19z m78 -105 c-3 -16 -14
-92 -25 -171 -12 -79 -25 -155 -31 -168 -5 -14 -9 -37 -9 -51 0 -15 -3 -24 -6
-20 -12 11 54 437 67 437 5 0 6 -12 4 -27z m-198 -205 c-3 -7 -5 -2 -5 12 0
14 2 19 5 13 2 -7 2 -19 0 -25z m110 0 c-3 -7 -5 -2 -5 12 0 14 2 19 5 13 2
-7 2 -19 0 -25z m-132 -167 c-24 -171 -63 -366 -72 -358 -2 3 14 107 37 232
22 125 41 240 41 254 1 19 3 21 6 7 3 -10 -2 -71 -12 -135z m62 47 c-3 -7 -5
-2 -5 12 0 14 2 19 5 13 2 -7 2 -19 0 -25z m80 -135 c-3 -10 -5 -4 -5 12 0 17
2 24 5 18 2 -7 2 -21 0 -30z m-140 -305 c-3 -8 -6 -5 -6 6 -1 11 2 17 5 13 3
-3 4 -12 1 -19z"/>
<path d="M3286 3298 c-9 -29 -16 -81 -10 -75 8 7 23 87 17 87 -2 0 -5 -6 -7
-12z"/>
<path d="M3212 3288 c-7 -7 -12 -19 -12 -27 0 -11 5 -8 16 7 18 25 15 39 -4
20z"/>
<path d="M8748 3253 c6 -2 18 -2 25 0 6 3 1 5 -13 5 -14 0 -19 -2 -12 -5z"/>
<path d="M10170 3240 c-11 -7 -4 -10 28 -10 23 0 42 5 42 10 0 13 -50 13 -70
0z"/>
<path d="M8670 3170 c0 -5 16 -10 35 -10 19 0 35 5 35 10 0 6 -16 10 -35 10
-19 0 -35 -4 -35 -10z"/>
<path d="M5525 3159 c-231 -30 -479 -144 -676 -311 -35 -30 -85 -67 -112 -82
-44 -26 -127 -110 -127 -129 0 -5 -9 -20 -20 -34 -11 -14 -20 -36 -20 -49 0
-13 -15 -45 -34 -72 -48 -66 -75 -139 -97 -262 -23 -130 -25 -260 -4 -305 22
-45 67 -85 106 -95 19 -5 54 -16 79 -26 31 -12 76 -17 145 -18 88 -1 107 2
155 25 31 14 73 29 93 33 50 9 194 79 338 163 180 106 209 129 209 167 0 11
10 30 22 43 21 23 13 34 -9 12 -6 -6 -16 -10 -23 -7 -6 2 9 19 34 37 25 19 44
36 42 39 -3 2 -21 -8 -41 -23 -68 -53 -44 -18 40 55 63 56 81 77 70 83 -16 9
-50 -6 -132 -59 -67 -43 -69 -30 -3 19 47 35 62 57 40 57 -5 0 -13 -6 -17 -12
-15 -24 -107 -82 -111 -70 -2 6 -17 -5 -34 -24 -35 -39 -203 -155 -264 -180
-63 -27 -153 -43 -242 -44 -92 0 -110 6 -164 58 -32 30 -38 43 -38 77 0 113
87 285 200 396 63 61 185 136 327 198 142 62 259 86 321 67 13 -5 22 -3 22 3
0 6 -5 11 -11 11 -5 0 -7 5 -4 10 4 7 24 8 50 5 43 -7 56 0 62 35 1 8 5 29 9
47 5 28 2 34 -36 62 l-43 31 34 0 c31 1 69 19 69 33 0 12 -55 35 -95 40 -22 3
-71 1 -110 -4z m115 -129 c0 -6 -28 -10 -67 -10 -38 0 -63 4 -56 8 19 12 123
14 123 2z m-143 -16 c-3 -3 -12 -4 -19 -1 -8 3 -5 6 6 6 11 1 17 -2 13 -5z
m-377 -224 c0 -5 -2 -10 -4 -10 -3 0 -8 5 -11 10 -3 6 -1 10 4 10 6 0 11 -4
11 -10z m-241 -78 c-30 -41 -89 -105 -94 -101 -2 3 19 33 47 67 29 34 54 60
56 57 2 -2 -2 -12 -9 -23z m-189 -6 c0 -3 -4 -8 -10 -11 -5 -3 -10 -1 -10 4 0
6 5 11 10 11 6 0 10 -2 10 -4z m-62 -233 c-2 -5 -14 -30 -27 -58 -13 -27 -26
-44 -28 -37 -6 15 35 102 49 102 5 0 8 -3 6 -7z m62 -178 c-6 -15 -13 -26 -16
-23 -2 3 0 18 6 33 6 15 13 26 16 23 2 -3 0 -18 -6 -33z m-181 -87 c-2 -40
-26 -141 -32 -132 -8 14 13 144 24 144 5 0 9 -6 8 -12z m75 -157 c-8 -9 -24
23 -19 37 3 8 5 23 6 35 1 12 5 2 10 -22 5 -25 6 -47 3 -50z m571 9 c-3 -5
-11 -10 -16 -10 -6 0 -7 5 -4 10 3 6 11 10 16 10 6 0 7 -4 4 -10z m-375 -51
c0 -12 -17 -11 -41 1 -30 17 -22 30 11 19 17 -6 30 -15 30 -20z m-135 -79 c3
-5 2 -10 -4 -10 -5 0 -13 5 -16 10 -3 6 -2 10 4 10 5 0 13 -4 16 -10z m120
-30 c3 -6 -4 -10 -17 -10 -18 0 -20 2 -8 10 19 12 18 12 25 0z"/>
<path d="M8630 3122 c0 -4 16 -6 35 -4 19 2 35 6 35 8 0 2 -16 4 -35 4 -19 0
-35 -4 -35 -8z"/>
<path d="M5760 3080 c0 -4 9 -10 20 -13 11 -3 20 -2 20 3 0 4 -9 10 -20 13
-11 3 -20 2 -20 -3z"/>
<path d="M7140 3040 c-18 -12 -2 -12 25 0 13 6 15 9 5 9 -8 0 -22 -4 -30 -9z"/>
<path d="M5740 2960 c19 -13 30 -13 30 0 0 6 -10 10 -22 10 -19 0 -20 -2 -8
-10z"/>
<path d="M7040 2960 c-12 -8 -10 -10 10 -10 14 0 32 5 40 10 12 8 10 10 -10
10 -14 0 -32 -5 -40 -10z"/>
<path d="M7168 2963 c7 -3 16 -2 19 1 4 3 -2 6 -13 5 -11 0 -14 -3 -6 -6z"/>
<path d="M7223 2943 c-7 -2 -13 -8 -13 -12 0 -10 59 -1 66 10 5 9 -32 11 -53
2z"/>
<path d="M7091 2909 c-13 -5 -22 -11 -19 -14 5 -5 78 14 78 20 0 8 -33 4 -59
-6z"/>
<path d="M7328 2903 c-19 -5 -25 -23 -9 -23 17 0 41 12 41 21 0 9 -4 10 -32 2z"/>
<path d="M9948 2703 c7 -3 16 -2 19 1 4 3 -2 6 -13 5 -11 0 -14 -3 -6 -6z"/>
<path d="M9857 2658 c7 -8 10 -18 6 -21 -10 -10 10 -8 27 3 17 11 14 15 -20
25 -21 7 -23 6 -13 -7z"/>
<path d="M8500 2600 c-13 -8 -12 -10 3 -10 9 0 17 5 17 10 0 12 -1 12 -20 0z"/>
<path d="M9748 2593 c12 -2 32 -2 45 0 12 2 2 4 -23 4 -25 0 -35 -2 -22 -4z"/>
<path d="M8528 2548 c9 -9 15 -9 24 0 9 9 7 12 -12 12 -19 0 -21 -3 -12 -12z"/>
<path d="M2625 2490 c-13 -6 -2 -7 30 -3 28 3 52 7 54 9 9 8 -65 2 -84 -6z"/>
<path d="M5763 2485 c-66 -28 -28 -23 57 8 11 4 9 6 -5 6 -11 0 -35 -6 -52
-14z"/>
<path d="M8434 2491 c3 -4 17 -7 32 -5 41 4 41 14 0 14 -20 0 -35 -4 -32 -9z"/>
<path d="M2563 2483 c9 -2 23 -2 30 0 6 3 -1 5 -18 5 -16 0 -22 -2 -12 -5z"/>
<path d="M2633 2453 c15 -2 37 -2 50 0 12 2 0 4 -28 4 -27 0 -38 -2 -22 -4z"/>
<path d="M2568 2443 c6 -2 18 -2 25 0 6 3 1 5 -13 5 -14 0 -19 -2 -12 -5z"/>
<path d="M5645 2439 c-4 -6 -5 -12 -2 -15 2 -3 7 2 10 11 7 17 1 20 -8 4z"/>
<path d="M8590 2440 c-8 -5 -11 -12 -8 -16 10 -9 38 3 38 16 0 12 -10 13 -30
0z"/>
<path d="M2708 2433 c12 -2 30 -2 40 0 9 3 -1 5 -23 4 -22 0 -30 -2 -17 -4z"/>
<path d="M2790 2316 c0 -8 5 -18 10 -21 6 -3 10 3 10 14 0 12 -4 21 -10 21 -5
0 -10 -6 -10 -14z"/>
<path d="M5698 2295 c-16 -13 -24 -26 -20 -29 11 -7 72 31 72 44 0 17 -24 10
-52 -15z"/>
<path d="M1038 2273 c7 -3 16 -2 19 1 4 3 -2 6 -13 5 -11 0 -14 -3 -6 -6z"/>
<path d="M1005 2200 c-3 -5 -2 -10 4 -10 5 0 13 5 16 10 3 6 2 10 -4 10 -5 0
-13 -4 -16 -10z"/>
<path d="M4060 2139 c-32 -9 -19 -11 55 -10 33 1 64 6 69 11 11 11 -85 10
-124 -1z"/>
<path d="M1000 2109 c0 -5 5 -7 10 -4 6 3 10 8 10 11 0 2 -4 4 -10 4 -5 0 -10
-5 -10 -11z"/>
<path d="M9805 2110 c-3 -5 1 -10 9 -10 8 0 18 5 21 10 3 6 -1 10 -9 10 -8 0
-18 -4 -21 -10z"/>
<path d="M9970 2100 c-8 -5 -11 -12 -7 -16 4 -4 13 -2 19 4 15 15 7 24 -12 12z"/>
<path d="M9840 2070 c0 -13 20 -13 40 0 12 8 9 10 -12 10 -16 0 -28 -4 -28
-10z"/>
<path d="M4253 2063 c-12 -2 -27 -10 -33 -18 -9 -11 -4 -12 26 -5 20 5 41 13
47 19 12 12 3 12 -40 4z"/>
<path d="M9720 2050 c0 -5 6 -10 14 -10 8 0 18 5 21 10 3 6 -3 10 -14 10 -12
0 -21 -4 -21 -10z"/>
<path d="M9733 1993 c-30 -2 -57 -10 -64 -19 -11 -13 -6 -14 42 -9 134 16 203
26 207 30 6 5 -97 4 -185 -2z"/>
<path d="M4165 1960 c29 -12 108 -12 100 0 -3 6 -32 10 -63 9 -41 0 -51 -3
-37 -9z"/>
<path d="M10140 1892 c-7 -34 -10 -65 -7 -68 7 -7 30 103 25 118 -3 7 -10 -16
-18 -50z"/>
<path d="M3896 1911 c15 -15 96 -18 101 -3 3 9 -11 12 -53 12 -36 0 -54 -4
-48 -9z"/>
<path d="M2670 1883 c0 -5 4 -15 10 -23 11 -18 25 -7 17 15 -6 15 -27 21 -27
8z"/>
<path d="M10177 1883 c-4 -3 -7 -16 -6 -27 0 -19 1 -19 10 3 10 24 8 36 -4 24z"/>
<path d="M5987 1863 c-10 -9 -9 -23 2 -23 5 0 11 7 15 15 5 15 -5 20 -17 8z"/>
<path d="M6990 1856 c0 -9 5 -16 10 -16 6 0 10 4 10 9 0 6 -4 13 -10 16 -5 3
-10 -1 -10 -9z"/>
<path d="M10977 1863 c-10 -9 -9 -23 2 -23 5 0 11 7 15 15 5 15 -5 20 -17 8z"/>
<path d="M11980 1856 c0 -9 5 -16 10 -16 6 0 10 4 10 9 0 6 -4 13 -10 16 -5 3
-10 -1 -10 -9z"/>
<path d="M1095 1840 c-3 -5 -2 -10 4 -10 5 0 13 5 16 10 3 6 2 10 -4 10 -5 0
-13 -4 -16 -10z"/>
<path d="M2650 1821 c0 -11 39 -59 40 -49 0 14 -23 58 -32 58 -4 0 -8 -4 -8
-9z"/>
<path d="M2430 1786 c0 -13 8 -30 17 -37 15 -13 16 -11 10 11 -4 14 -7 31 -7
38 0 6 -4 12 -10 12 -5 0 -10 -11 -10 -24z"/>
<path d="M2470 1800 c0 -5 5 -10 10 -10 6 0 10 5 10 10 0 6 -4 10 -10 10 -5 0
-10 -4 -10 -10z"/>
<path d="M1085 1763 c-20 -48 -13 -53 14 -8 24 41 25 45 11 45 -5 0 -17 -16
-25 -37z"/>
<path d="M5690 1735 c-8 -9 -8 -15 -2 -15 12 0 26 19 19 26 -2 2 -10 -2 -17
-11z"/>
<path d="M10680 1735 c-8 -9 -8 -15 -2 -15 12 0 26 19 19 26 -2 2 -10 -2 -17
-11z"/>
<path d="M7887 1734 c-4 -4 -7 -19 -6 -33 l0 -26 10 24 c10 26 8 47 -4 35z"/>
<path d="M1100 1710 c-6 -11 -8 -20 -6 -20 3 0 10 9 16 20 6 11 8 20 6 20 -3
0 -10 -9 -16 -20z"/>
<path d="M10200 1694 c-13 -32 -13 -44 0 -44 12 0 30 33 30 54 0 25 -20 19
-30 -10z"/>
<path d="M7788 1684 c-5 -4 -8 -19 -8 -33 1 -23 2 -24 11 -8 11 19 9 53 -3 41z"/>
<path d="M7730 1626 c0 -19 -3 -43 -6 -53 -5 -12 -4 -15 3 -8 16 15 25 82 13
90 -6 4 -10 -7 -10 -29z"/>
<path d="M7607 1630 c3 -11 7 -20 9 -20 2 0 4 9 4 20 0 11 -4 20 -9 20 -5 0
-7 -9 -4 -20z"/>
<path d="M10120 1631 c-12 -24 -14 -69 -1 -55 9 10 23 74 16 74 -2 0 -9 -9
-15 -19z"/>
<path d="M10256 1634 c-4 -9 -4 -19 -1 -22 2 -3 7 3 11 12 4 9 4 19 1 22 -2 3
-7 -3 -11 -12z"/>
<path d="M8781 1574 c0 -11 3 -14 6 -6 3 7 2 16 -1 19 -3 4 -6 -2 -5 -13z"/>
<path d="M10288 1584 c-5 -4 -8 -16 -8 -28 0 -14 3 -17 11 -9 6 6 9 19 7 28
-1 9 -6 13 -10 9z"/>
<path d="M1120 1570 c0 -5 5 -10 10 -10 6 0 10 5 10 10 0 6 -4 10 -10 10 -5 0
-10 -4 -10 -10z"/>
<path d="M990 845 l0 -85 2670 0 2670 0 0 85 0 85 -2670 0 -2670 0 0 -85z"/>
<path d="M6980 845 l0 -85 1150 0 1150 0 0 85 0 85 -1150 0 -1150 0 0 -85z"/>
</g>
</svg>
