<?xml version="1.0" standalone="no"?>
<!DOCTYPE svg PUBLIC "-//W3C//DTD SVG 20010904//EN"
 "http://www.w3.org/TR/2001/REC-SVG-20010904/DTD/svg10.dtd">
<svg version="1.0" xmlns="http://www.w3.org/2000/svg"
 width="1321.000000pt" height="1225.000000pt" viewBox="0 0 1321.000000 1225.000000"
 preserveAspectRatio="xMidYMid meet">

<g transform="translate(0.000000,1225.000000) scale(0.100000,-0.100000)"
fill="#000000" stroke="none">
<path d="M0 6125 l0 -6125 6605 0 6605 0 0 6125 0 6125 -6605 0 -6605 0 0
-6125z m7812 5395 c138 -170 241 -348 288 -498 l27 -87 26 81 c14 44 46 186
71 315 49 251 71 339 86 339 5 0 55 -44 111 -97 95 -91 206 -219 425 -488 152
-187 232 -272 349 -370 420 -352 654 -793 715 -1343 18 -162 8 -568 -18 -737
-116 -748 -445 -1330 -1002 -1775 -155 -123 -244 -178 -472 -289 -215 -106
-283 -153 -318 -221 -44 -86 -126 -415 -162 -645 -41 -268 -34 -780 13 -913
24 -71 75 -131 140 -167 l54 -30 368 -3 c348 -3 367 -2 367 15 0 12 -19 28
-56 47 -118 62 -189 152 -219 277 -12 53 -14 114 -9 349 5 236 4 306 -10 405
-27 195 -63 335 -139 538 -34 92 -38 111 -26 122 36 34 824 573 827 565 2 -5
-12 -121 -32 -257 -45 -315 -55 -429 -63 -683 -6 -229 7 -446 39 -635 81 -481
189 -604 595 -680 291 -54 514 -65 1245 -64 598 1 688 -2 688 -23 0 -23 -76
-111 -128 -148 -86 -62 -127 -71 -380 -80 -123 -5 -247 -11 -275 -14 -148 -16
-412 -49 -416 -52 -9 -8 69 -14 438 -34 217 -11 397 -22 399 -25 10 -10 -51
-95 -83 -115 -19 -12 -81 -31 -137 -42 -57 -11 -107 -24 -112 -28 -4 -5 18
-11 50 -15 97 -12 98 -14 9 -103 -61 -60 -94 -85 -140 -103 l-60 -24 -4465 4
c-2456 2 -4465 4 -4466 5 -1 0 -4 13 -7 27 -6 24 -2 28 81 64 48 21 101 42
117 47 17 5 210 22 430 38 526 38 686 53 679 59 -3 3 -226 20 -496 36 -317 19
-493 34 -495 41 -6 19 76 102 124 125 40 19 69 23 215 29 230 10 231 15 3 46
-66 9 -122 18 -124 20 -7 7 82 115 133 160 107 97 191 120 370 103 74 -7 174
-9 262 -4 l144 7 0 352 c0 351 8 512 36 766 29 265 40 289 183 382 211 138
229 198 130 426 -59 135 -63 204 -19 336 31 93 59 225 59 276 0 14 -23 -30
-53 -100 -294 -690 -745 -1188 -1404 -1549 -121 -66 -388 -191 -409 -191 -22
0 30 367 82 579 183 741 614 1417 1190 1864 356 276 806 502 1271 638 72 21
136 48 190 80 363 218 772 285 1354 224 363 -37 601 -23 848 51 290 87 498
232 746 518 43 50 75 76 114 94 53 24 59 25 171 16 154 -11 243 -8 310 12 64
18 155 63 191 93 l25 21 -360 -6 c-198 -3 -446 -2 -550 3 l-191 8 -51 38 c-86
63 -209 229 -268 363 l-23 52 266 153 c267 152 305 176 298 188 -2 3 0 33 5
65 13 82 56 158 146 257 41 46 90 104 108 128 l32 44 -28 62 c-63 141 -99 352
-106 635 l-4 205 36 -40 c20 -22 63 -74 97 -115z m2888 -7909 c0 -24 -10 -51
-19 -51 -4 0 -5 16 -3 35 4 37 22 49 22 16z m-147 -8 c8 -7 -11 -33 -24 -33
-5 0 -9 9 -9 20 0 19 20 27 33 13z m-92 -46 c-8 -8 -11 -7 -11 4 0 20 13 34
18 19 3 -7 -1 -17 -7 -23z m-81 -35 c0 -38 -7 -55 -19 -47 -10 5 0 85 10 85 5
0 9 -17 9 -38z m-8180 -36 c-17 -31 -34 -56 -36 -56 -3 0 9 27 27 60 18 32 35
57 37 55 2 -2 -10 -29 -28 -59z m8420 53 c0 -5 -11 -60 -25 -120 -26 -114 -51
-257 -65 -369 -5 -36 -23 -141 -40 -233 -17 -93 -30 -178 -28 -190 2 -12 32
124 67 303 35 179 69 332 76 340 7 8 22 50 34 93 23 86 46 137 61 137 14 0 13
-8 -10 -68 -16 -42 -105 -420 -150 -637 -23 -113 -62 -309 -75 -380 -8 -44
-24 -125 -34 -180 -11 -55 -23 -134 -26 -175 -4 -41 -13 -100 -21 -130 -8 -30
-23 -93 -34 -140 -40 -180 -51 -210 -71 -210 -7 0 -8 12 -4 30 5 23 3 30 -9
30 -9 0 -16 7 -16 16 0 12 42 210 115 542 8 36 -5 25 -26 -22 -23 -53 -58
-215 -67 -311 -6 -62 -9 -70 -29 -73 -18 -3 -23 -12 -29 -48 -6 -45 -26 -66
-45 -47 -11 11 5 151 27 236 8 32 14 84 12 115 -3 54 -5 48 -37 -103 -35 -165
-56 -233 -68 -221 -16 15 -12 95 7 158 11 36 20 78 20 92 l0 26 -20 -20 c-34
-34 -43 -25 -36 33 6 49 5 50 -7 22 -8 -16 -19 -51 -26 -77 -13 -46 -35 -77
-47 -65 -3 3 10 69 30 147 58 224 113 465 156 678 59 290 145 627 161 627 18
0 30 -52 24 -105 l-5 -45 15 40 c9 22 21 45 29 50 17 13 33 62 49 150 9 55 16
71 31 73 16 3 18 0 11 -19 -4 -13 -14 -58 -22 -99 -8 -41 -27 -125 -43 -186
-30 -109 -39 -176 -21 -144 5 8 12 35 16 60 4 25 18 65 31 90 13 25 24 52 24
62 0 28 11 48 27 48 11 0 14 -7 10 -22 -16 -70 -17 -87 -8 -93 14 -8 14 -9 46
170 15 83 30 156 32 163 6 15 33 16 33 1z m-4264 -26 c-7 -7 -26 7 -26 19 0 6
6 6 15 -2 9 -7 13 -15 11 -17z m4984 12 c7 -8 8 -15 2 -15 -5 0 -15 7 -22 15
-7 8 -8 15 -2 15 5 0 15 -7 22 -15z m-9506 -31 c11 -28 6 -39 -9 -20 -8 11
-15 23 -15 28 0 14 18 9 24 -8z m206 -32 c9 -26 19 -41 27 -38 8 3 15 -6 19
-22 3 -15 10 -39 16 -54 l10 -26 28 31 c39 44 46 29 14 -32 -14 -29 -24 -54
-22 -57 3 -3 15 16 27 41 12 25 26 45 31 45 15 0 12 -17 -7 -47 -35 -54 8 -10
67 68 34 43 68 79 77 79 14 0 14 -2 0 -24 -10 -15 -12 -27 -6 -33 7 -7 -5 -29
-33 -64 -77 -97 -118 -153 -118 -162 0 -26 46 -182 96 -322 31 -88 76 -221
101 -295 64 -194 54 -177 115 -184 142 -15 159 -18 155 -29 -2 -7 -21 -14 -43
-17 l-39 -5 43 -14 c23 -8 42 -18 42 -22 0 -20 -43 -30 -99 -23 -34 3 -61 2
-64 -3 -6 -10 43 -184 83 -297 12 -32 18 -61 15 -64 -9 -9 -22 11 -39 63 -9
28 -25 66 -36 85 -24 44 -26 21 -4 -70 8 -35 12 -76 9 -90 -3 -14 1 -45 10
-69 17 -49 20 -116 5 -106 -6 4 -10 -5 -10 -19 0 -19 -5 -25 -17 -23 -30 4
-44 18 -60 56 -14 33 -17 34 -25 16 -8 -18 -8 -18 -4 3 3 14 -8 50 -25 85
l-30 62 6 -42 c5 -30 3 -43 -5 -43 -7 0 -14 9 -17 20 -6 23 -14 25 -31 8 -13
-13 -13 -15 -41 97 -11 44 -33 118 -49 165 l-29 85 -39 -2 c-107 -5 -345 -22
-375 -27 -19 -4 -97 -10 -173 -15 -114 -8 -142 -13 -156 -28 -10 -10 -55 -74
-102 -143 -79 -118 -107 -166 -172 -302 -15 -31 -37 -65 -48 -75 -21 -18 -21
-18 -14 7 4 14 10 43 13 64 l6 40 -37 -23 c-20 -13 -40 -20 -43 -17 -12 11 18
158 37 185 51 74 161 263 156 268 -12 12 -39 -25 -97 -133 -33 -63 -69 -124
-80 -136 -18 -22 -19 -22 -17 -3 1 11 0 25 -4 30 -3 6 20 57 53 115 32 58 59
111 59 118 0 6 -10 13 -22 13 -29 2 -24 2 -83 -6 -41 -6 -48 -5 -37 6 18 19
15 29 -10 29 l-23 1 24 19 c14 12 18 20 10 20 -8 1 16 13 54 28 37 14 67 30
67 34 0 4 -27 8 -60 8 -33 0 -60 3 -60 8 0 13 112 60 193 81 43 11 81 23 86
25 5 3 27 37 50 76 57 96 217 336 339 508 55 79 108 163 118 188 11 29 22 43
31 40 7 -3 19 5 27 17 12 19 12 31 -4 92 -18 68 -17 120 2 140 6 7 13 3 21
-10 11 -19 12 -18 18 10 l6 30 22 -45 21 -45 -6 55 c-4 30 -7 59 -8 65 -1 9
55 24 84 21 8 -1 22 -20 30 -44z m8496 0 c-12 -11 -18 7 -10 30 l8 23 4 -23
c2 -13 1 -26 -2 -30z m-8305 5 l-23 -22 17 28 c10 15 20 25 23 22 3 -3 -5 -16
-17 -28z m4059 13 c0 -11 -7 -20 -15 -20 -15 0 -21 21 -8 33 12 13 23 7 23
-13z m4990 0 c0 -11 -7 -20 -15 -20 -15 0 -21 21 -8 33 12 13 23 7 23 -13z
m-4855 -57 c24 -67 52 -87 41 -29 -8 43 7 48 28 9 14 -26 15 -27 16 -5 0 40
25 23 48 -36 13 -31 54 -142 92 -247 37 -104 88 -244 112 -310 49 -131 103
-294 113 -338 l6 -28 142 6 c78 3 157 8 175 11 24 4 32 1 32 -11 0 -8 -7 -15
-15 -15 -7 0 -18 -6 -22 -14 -5 -9 -37 -19 -77 -26 -38 -6 -74 -14 -80 -17
-16 -10 24 -21 79 -23 47 -1 49 -2 30 -16 -14 -11 -42 -15 -100 -14 -109 2
-107 2 -103 -17 2 -13 16 -19 48 -23 l45 -5 -33 -15 c-36 -16 -36 -21 -9 -95
8 -21 20 -41 26 -43 16 -5 13 -32 -3 -32 -13 0 -13 -7 0 -47 9 -27 19 -57 24
-68 72 -169 83 -223 44 -208 -14 5 -15 3 -5 -15 15 -28 14 -42 -3 -42 -10 0
-12 -7 -8 -22 5 -21 4 -22 -11 -9 -11 9 -17 10 -17 2 0 -20 -26 -12 -38 12 -6
12 -27 57 -46 100 -20 44 -41 77 -49 77 -22 0 -67 64 -119 170 -26 52 -47 92
-48 89 -1 -15 35 -107 51 -130 25 -36 51 -105 47 -125 -6 -31 -60 65 -95 169
-18 53 -40 111 -49 128 -16 31 -16 31 -74 25 -32 -4 -104 -18 -161 -32 -57
-14 -169 -36 -249 -49 -80 -13 -152 -26 -160 -29 -8 -4 -39 -45 -69 -92 -30
-48 -63 -89 -73 -92 -11 -2 -43 -46 -74 -98 -30 -51 -61 -97 -68 -101 -6 -5
-21 -26 -33 -48 -12 -24 -26 -39 -36 -37 -8 1 -22 -7 -31 -20 -9 -12 -19 -19
-23 -15 -8 8 9 39 69 131 53 80 68 111 68 138 0 31 -12 16 -54 -69 -35 -69
-56 -97 -56 -73 0 6 -4 8 -10 5 -14 -9 -13 0 9 79 l19 68 -24 -6 c-34 -9 -31
4 22 102 44 80 45 85 23 79 -13 -4 -42 -10 -64 -13 -55 -8 -27 11 40 27 64 15
75 24 75 65 0 33 -1 34 -41 34 -24 0 -38 4 -34 10 3 6 21 10 39 10 35 0 76 23
63 36 -4 4 -29 2 -55 -5 -75 -21 -98 -25 -87 -13 8 8 91 37 162 57 6 2 38 45
70 95 32 49 121 182 198 295 77 112 177 262 223 331 l83 127 -35 94 c-40 104
-47 144 -19 122 15 -13 15 -12 0 18 -22 41 -23 77 -2 69 11 -4 15 2 15 20 0
21 4 25 19 21 15 -4 20 2 25 26 8 38 16 30 41 -40z m5001 -30 c19 -45 37 -43
28 2 -8 42 7 46 26 8 14 -28 14 -28 18 -5 2 13 8 22 13 20 14 -5 71 -138 114
-265 19 -57 74 -209 121 -336 47 -128 94 -263 104 -302 11 -43 23 -71 32 -73
8 -2 87 1 174 6 87 5 161 8 163 6 2 -2 -8 -15 -23 -29 -18 -17 -44 -28 -74
-31 -26 -3 -63 -11 -82 -16 -30 -10 -32 -12 -15 -19 11 -4 45 -8 75 -9 51 -1
54 -2 35 -16 -14 -11 -42 -15 -100 -14 -109 2 -105 2 -105 -19 0 -17 8 -20 48
-23 l47 -3 -32 -15 c-18 -8 -33 -19 -33 -25 0 -21 38 -109 49 -113 17 -6 13
-32 -5 -32 -11 0 -14 -5 -9 -17 4 -10 13 -37 21 -60 7 -23 29 -83 49 -133 37
-91 40 -125 9 -113 -14 5 -15 3 -5 -15 15 -29 14 -42 -5 -42 -10 0 -13 -6 -10
-18 5 -14 0 -18 -26 -17 -31 0 -34 3 -73 94 -27 64 -47 96 -62 102 -26 10 -56
52 -116 164 -26 49 -45 79 -41 65 10 -40 34 -93 48 -110 7 -8 21 -37 31 -63
14 -36 15 -51 7 -59 -9 -9 -12 -9 -12 1 0 7 -11 27 -24 44 -13 18 -40 83 -61
145 -53 155 -45 148 -144 133 -45 -6 -115 -21 -155 -31 -41 -11 -141 -31 -222
-44 -82 -14 -156 -27 -165 -31 -10 -3 -41 -45 -70 -92 -29 -47 -63 -89 -75
-93 -13 -5 -43 -46 -74 -100 -29 -50 -58 -94 -66 -97 -7 -2 -23 -25 -34 -49
-12 -24 -26 -41 -32 -38 -5 3 -20 -4 -34 -17 -43 -41 -27 1 46 115 69 109 78
130 61 140 -5 3 -25 -28 -45 -69 -34 -70 -56 -99 -56 -75 0 6 -4 8 -10 5 -14
-8 -12 10 5 75 19 71 19 73 -5 65 -30 -9 -25 10 25 104 l45 83 -27 -6 c-16 -3
-44 -9 -63 -12 -52 -8 -17 12 45 27 65 15 75 24 73 65 -1 33 -3 34 -40 34 -50
0 -41 16 13 23 23 3 46 10 52 16 20 20 -3 25 -51 12 -77 -22 -96 -25 -89 -14
4 6 45 23 92 38 79 25 88 31 112 69 14 22 51 79 83 126 31 47 127 191 213 320
87 129 175 261 197 293 l41 58 -36 94 c-35 93 -44 142 -25 130 14 -9 12 1 -5
36 -17 32 -13 49 11 49 8 0 14 9 14 21 0 16 5 20 20 16 16 -4 20 0 20 17 0 37
14 39 28 4 8 -18 20 -48 28 -65z m-8030 25 c-3 -29 -20 -107 -37 -173 -16 -66
-37 -162 -45 -214 -7 -52 -18 -99 -23 -105 -6 -7 -12 -34 -14 -61 -3 -28 -14
-95 -25 -150 -11 -55 -24 -125 -27 -155 -4 -30 -11 -65 -16 -77 -4 -12 -13
-62 -19 -110 -7 -48 -22 -131 -35 -183 -37 -156 -38 -159 -12 -155 12 1 58 7
102 13 44 6 145 16 225 22 206 15 373 31 390 38 20 7 44 2 52 -11 4 -7 48 -14
104 -17 59 -3 99 -9 101 -16 4 -13 -28 -24 -69 -24 -16 0 -28 -4 -28 -9 0 -14
-29 -23 -100 -31 -63 -7 -62 -7 37 -9 60 0 105 -5 108 -12 10 -15 2 -20 -44
-26 -31 -4 -41 -10 -39 -22 2 -12 -10 -19 -47 -26 -33 -7 -50 -15 -50 -25 0
-8 -8 -15 -17 -14 -10 0 -36 1 -58 2 -55 3 -51 22 4 22 25 0 48 5 52 11 8 14
-78 7 -186 -14 -70 -14 -72 -15 -30 -16 30 -1 40 -4 30 -10 -8 -5 -44 -5 -80
-1 -35 5 -69 6 -75 2 -5 -3 -35 -10 -65 -14 -353 -46 -377 -50 -397 -71 -21
-21 -32 -86 -33 -198 0 -109 -8 -124 -51 -102 -27 13 -29 19 -29 71 0 49 -2
54 -13 37 -25 -33 -34 -8 -33 86 l2 91 -37 -6 c-21 -3 -43 -8 -51 -11 -18 -7
-66 33 -51 42 6 5 17 36 23 70 16 78 6 97 -41 81 -17 -6 -32 -8 -35 -5 -9 9
35 48 72 63 19 8 34 21 34 29 0 18 3 17 -38 6 -38 -11 -73 -4 -50 10 7 5 27 9
43 9 17 0 36 4 42 8 15 9 46 124 63 232 7 41 22 127 35 190 13 63 31 171 40
240 33 246 59 360 84 360 6 0 20 20 31 45 11 25 27 45 35 45 17 0 20 -16 5
-25 -15 -9 -12 -45 4 -45 7 0 19 6 25 14 7 8 20 12 30 9 14 -4 20 4 27 38 10
48 30 61 42 28 8 -21 10 -19 24 21 9 29 21 46 34 48 10 2 23 7 27 12 10 9 36
116 37 151 0 25 16 49 33 49 6 0 7 -22 3 -52z m5554 3 c-6 -23 -15 -41 -20
-41 -14 0 -12 15 5 57 20 47 29 37 15 -16z m-6690 0 c-29 -42 -34 -39 -8 4 11
20 23 34 25 31 3 -3 -5 -19 -17 -35z m6840 -11 c20 -38 20 -42 3 -100 -9 -33
-14 -62 -12 -64 2 -2 62 1 133 5 308 20 587 18 704 -7 30 -6 28 -20 -5 -32
-28 -10 -28 -10 8 -11 20 -1 51 -6 69 -13 31 -10 32 -12 15 -25 -11 -7 -29
-13 -41 -13 -33 0 -73 -20 -68 -35 3 -6 -5 -16 -18 -22 -18 -8 -10 -11 51 -16
75 -6 90 -11 77 -24 -4 -5 -139 -9 -299 -9 -215 -2 -343 -7 -486 -22 -106 -12
-195 -23 -197 -25 -7 -7 -74 -300 -70 -306 3 -4 49 -3 103 1 189 13 529 19
593 10 59 -8 63 -9 40 -19 -14 -6 -45 -16 -70 -21 -43 -9 -44 -9 -20 -20 23
-10 24 -11 3 -11 -12 -1 -34 -17 -51 -39 -36 -45 -29 -72 18 -72 40 0 38 -16
-2 -24 -18 -3 -150 -13 -293 -21 -297 -17 -351 -23 -363 -39 -9 -10 -83 -338
-78 -343 1 -1 60 4 131 12 281 30 688 46 753 29 41 -11 23 -23 -40 -26 -56 -3
-60 -5 -38 -14 l25 -11 -37 -16 c-22 -9 -38 -23 -38 -32 0 -12 -6 -15 -20 -10
-11 4 -20 2 -20 -4 0 -6 5 -11 11 -11 23 0 -4 -20 -35 -25 -22 -5 -33 -12 -32
-23 1 -10 -11 -20 -29 -25 -66 -21 -70 -26 -16 -23 58 4 91 -2 91 -14 0 -13
-28 -18 -135 -24 -55 -4 -129 -9 -165 -12 -68 -5 -482 -65 -488 -70 -2 -1 -8
-37 -13 -78 -11 -85 -23 -126 -39 -126 -14 0 -12 49 4 103 10 34 11 44 1 41
-6 -3 -16 -30 -21 -61 -5 -33 -15 -58 -23 -61 -14 -5 -13 35 4 115 5 23 4 25
-5 11 -21 -34 -33 -20 -27 32 5 44 4 50 -13 50 -22 0 -31 -12 -40 -54 -7 -35
-35 -43 -35 -9 0 11 -3 25 -7 29 -5 4 -8 19 -8 34 0 23 -3 27 -24 23 -38 -8
-40 14 -2 28 36 13 55 47 34 61 -9 5 -8 12 4 25 8 10 18 36 21 58 3 22 17 110
32 195 32 189 29 205 -40 216 -33 5 -45 10 -41 20 4 10 -2 14 -19 14 -37 0
-41 20 -6 33 37 14 40 27 6 27 -27 0 -34 18 -10 25 22 7 36 14 75 35 l35 20
-52 -6 c-29 -4 -60 -3 -70 1 -17 7 -17 8 2 15 11 5 41 9 66 9 31 1 49 6 52 15
3 8 22 16 43 18 l38 3 36 148 c19 82 32 151 28 153 -4 3 2 20 12 40 11 19 20
44 20 55 0 17 -6 20 -32 18 -37 -3 -55 14 -20 19 27 4 29 22 2 22 -11 0 -20 7
-20 15 0 10 10 15 30 15 23 0 31 5 36 25 7 27 31 45 60 45 10 0 35 17 56 37
39 38 58 40 38 4 -11 -21 3 -31 15 -11 3 5 19 7 34 4 32 -7 34 -4 51 84 9 48
37 122 46 122 2 0 13 -18 24 -40z m-6880 -5 c-7 -9 -15 -13 -18 -10 -3 2 1 11
8 20 7 9 15 13 18 10 3 -2 -1 -11 -8 -20z m8186 -10 c-3 -8 -10 -15 -16 -15
-14 0 -12 37 3 43 15 5 21 -8 13 -28z m-1415 -58 c-8 -8 -11 1 -11 29 0 53 14
67 18 19 2 -21 -1 -42 -7 -48z m-5712 16 c-12 -65 -29 -103 -45 -103 -18 0
-18 10 4 67 11 26 22 56 25 66 13 37 24 16 16 -30z m5588 -35 c-3 -8 -6 -5 -6
6 -1 11 2 17 5 13 3 -3 4 -12 1 -19z m-5683 -81 c-4 -26 -11 -47 -16 -47 -4 0
-6 11 -3 25 3 14 7 37 10 51 9 43 16 21 9 -29z m4836 33 c0 -11 1 -20 3 -20 1
0 65 7 142 15 169 18 255 19 255 4 0 -8 20 -9 65 -4 35 3 69 3 76 0 16 -10
-65 -85 -93 -86 -13 0 -32 -4 -43 -9 -15 -7 -10 -9 23 -9 35 -1 43 -4 40 -18
-2 -10 -17 -20 -36 -24 -49 -10 -65 -29 -24 -29 22 0 32 -5 32 -15 0 -8 -9
-15 -19 -15 -11 0 -21 -8 -23 -17 -3 -16 -15 -18 -108 -15 -105 4 -309 -13
-322 -26 -17 -17 -102 -524 -143 -852 -8 -63 -21 -169 -29 -235 -8 -66 -18
-128 -22 -138 -8 -23 -24 -22 -24 2 0 30 -16 33 -28 6 -13 -27 -27 -32 -35
-12 -3 6 -6 -3 -6 -21 -1 -25 -6 -35 -21 -39 -11 -3 -23 -16 -26 -30 -5 -17
-12 -23 -24 -20 -14 4 -21 -5 -29 -39 -10 -40 -26 -62 -37 -51 -3 3 2 29 10
58 19 63 19 64 4 52 -7 -6 -23 -13 -35 -16 -20 -4 -23 -1 -23 24 0 16 -5 29
-11 29 -6 0 -8 7 -5 16 3 9 11 48 17 87 12 81 12 81 39 197 21 94 41 219 95
595 20 138 40 269 44 292 l8 42 -31 -6 c-17 -3 -65 -13 -106 -23 -119 -29
-259 -53 -275 -46 -8 3 -15 12 -15 20 0 11 9 13 39 9 23 -3 41 -1 45 6 5 8
-17 11 -74 11 -61 0 -81 3 -78 12 5 14 -15 38 -31 38 -15 0 -14 27 2 33 6 3 2
6 -9 6 -24 1 -49 25 -40 39 12 20 166 61 485 129 121 25 134 30 143 53 9 23
10 24 22 8 21 -28 88 -24 125 8 24 20 31 22 31 10 0 -25 29 -19 42 9 13 30 38
33 38 5z m-4911 -32 c-7 -13 -14 -18 -16 -11 -3 7 1 22 8 35 7 13 14 18 16 11
3 -7 -1 -22 -8 -35z m5565 -18 c-7 -7 -19 -7 -35 -1 -23 9 -22 10 11 10 23 1
31 -2 24 -9z m1456 -10 c0 -5 -18 -10 -41 -10 -24 0 -38 4 -34 10 3 6 22 10
41 10 19 0 34 -4 34 -10z m-1573 -26 c-3 -3 -12 -4 -19 -1 -8 3 -5 6 6 6 11 1
17 -2 13 -5z m73 -45 c0 -5 -16 -9 -35 -9 -39 0 -48 17 -12 22 27 5 47 -1 47
-13z m-3037 -23 c20 -10 37 -21 37 -25 0 -11 -64 -35 -84 -32 -13 2 -8 -7 18
-29 35 -31 48 -75 29 -94 -4 -4 -8 -17 -8 -29 0 -20 -5 -22 -52 -22 -28 0 -55
-3 -59 -7 -4 -5 -2 -8 4 -8 7 0 12 -5 12 -11 0 -6 -9 -8 -22 -3 -116 37 -496
-118 -646 -264 -103 -102 -184 -255 -199 -379 l-6 -54 48 -44 c55 -52 82 -59
191 -51 90 5 152 18 208 41 57 24 239 148 269 185 15 17 31 28 37 25 11 -7 58
22 103 63 18 18 27 21 27 11 0 -8 -24 -36 -52 -62 l-53 -48 45 29 c88 56 128
75 147 68 16 -7 14 -11 -17 -38 -97 -86 -141 -128 -134 -128 4 0 22 11 40 25
18 14 39 25 46 25 7 -1 4 -6 -8 -13 -11 -7 -27 -18 -35 -25 -8 -7 -23 -20 -34
-28 -19 -15 -12 -15 29 2 19 7 19 6 -2 -23 -12 -17 -22 -41 -22 -52 0 -26 -44
-58 -233 -169 -143 -84 -244 -131 -327 -152 -25 -7 -56 -18 -70 -25 -90 -48
-212 -46 -360 5 -66 23 -84 35 -117 78 -32 42 -33 46 -33 140 0 100 26 262 55
342 9 25 34 72 55 106 22 33 40 70 40 82 0 34 96 166 141 193 59 36 89 57 173
126 69 56 202 140 302 191 51 26 205 70 303 88 94 16 165 13 214 -10z m3107
-16 c0 -5 -5 -10 -11 -10 -5 0 -7 5 -4 10 3 6 8 10 11 10 2 0 4 -4 4 -10z
m-139 -12 c-23 -6 -37 -6 -44 1 -8 8 2 11 34 10 l44 -1 -34 -10z m-2881 -38
c8 -5 12 -11 9 -14 -3 -3 -14 1 -25 9 -21 16 -8 20 16 5z m1380 -42 c-32 -12
-51 -3 -20 10 14 5 29 7 34 4 5 -3 -1 -9 -14 -14z m0 -22 c0 -3 -4 -8 -10 -11
-5 -3 -10 -1 -10 4 0 6 5 11 10 11 6 0 10 -2 10 -4z m-1400 -57 c0 -11 -3 -11
-24 -3 -23 9 -20 23 4 17 11 -3 20 -9 20 -14z m1325 11 c8 -13 -17 -23 -47
-18 l-23 5 25 11 c32 14 37 14 45 2z m92 -6 c-3 -3 -12 -4 -19 -1 -8 3 -5 6 6
6 11 1 17 -2 13 -5z m88 -23 c-15 -13 -65 -23 -65 -12 0 12 18 19 50 20 14 1
20 -3 15 -8z m-125 -21 c0 -11 -61 -29 -74 -22 -5 3 6 11 25 17 44 16 49 17
49 5z m199 -31 c-18 -11 -39 -11 -39 -1 0 14 44 31 49 20 2 -6 -3 -14 -10 -19z
m-144 1 c3 -5 1 -10 -4 -10 -6 0 -11 5 -11 10 0 6 2 10 4 10 3 0 8 -4 11 -10z
m65 -10 c0 -5 -5 -10 -11 -10 -5 0 -7 5 -4 10 3 6 8 10 11 10 2 0 4 -4 4 -10z
m2700 -170 c0 -5 -7 -10 -15 -10 -8 0 -15 5 -15 10 0 6 7 10 15 10 8 0 15 -4
15 -10z m-80 -50 c13 -9 13 -11 0 -20 -17 -11 -37 -14 -27 -3 4 3 2 12 -4 20
-14 16 8 18 31 3z m-1370 -60 c0 -5 -7 -10 -16 -10 -8 0 -12 5 -9 10 3 6 10
10 16 10 5 0 9 -4 9 -10z m1285 0 c4 -6 -11 -10 -37 -9 -36 1 -39 2 -18 9 36
11 48 11 55 0z m-4835 -34 c0 -3 -4 -8 -10 -11 -5 -3 -10 -1 -10 4 0 6 5 11
10 11 6 0 10 -2 10 -4z m3590 -16 c0 -5 -6 -10 -14 -10 -8 0 -18 5 -21 10 -3
6 3 10 14 10 12 0 21 -4 21 -10z m-2725 -49 c-16 -14 -105 -40 -105 -31 0 5
21 16 48 24 57 18 70 19 57 7z m-3126 -5 c-11 -9 -99 -15 -99 -6 0 6 23 10 52
10 28 0 49 -2 47 -4z m5786 -6 c-3 -5 -19 -10 -36 -10 -16 0 -29 5 -29 10 0 6
16 10 36 10 21 0 33 -4 29 -10z m-5907 -7 c-10 -2 -26 -2 -35 0 -10 3 -2 5 17
5 19 0 27 -2 18 -5z m137 -22 c-24 -10 -170 -22 -162 -15 7 8 101 21 147 22
27 1 30 -1 15 -7z m2927 -33 c-7 -7 -12 -8 -12 -2 0 14 12 26 19 19 2 -3 -1
-11 -7 -17z m2968 12 c0 -12 -28 -25 -36 -17 -9 9 6 27 22 27 8 0 14 -5 14
-10z m-5882 -7 c-16 -2 -40 -2 -55 0 -16 2 -3 4 27 4 30 0 43 -2 28 -4z m3042
-57 c0 -2 -7 -7 -16 -10 -8 -3 -12 -2 -9 4 6 10 25 14 25 6z m-2970 -67 c0
-11 -4 -17 -10 -14 -5 3 -10 13 -10 21 0 8 5 14 10 14 6 0 10 -9 10 -21z
m2937 -3 c-8 -19 -64 -49 -71 -37 -6 9 65 64 72 56 3 -2 2 -11 -1 -19z m-4682
-26 c-3 -5 -13 -10 -21 -10 -8 0 -12 5 -9 10 3 6 13 10 21 10 8 0 12 -4 9 -10z
m-15 -40 c0 -5 -5 -10 -11 -10 -5 0 -7 5 -4 10 3 6 8 10 11 10 2 0 4 -4 4 -10z
m-20 -40 c0 -5 -7 -10 -15 -10 -8 0 -15 5 -15 10 0 6 7 10 15 10 8 0 15 -4 15
-10z m4580 -44 c0 -11 -19 -15 -25 -6 -3 5 1 10 9 10 9 0 16 -2 16 -4z m-1426
-16 c-14 -14 -107 -25 -131 -16 -32 13 7 26 77 26 44 0 61 -3 54 -10z m5736 1
c0 -5 -9 -7 -20 -4 -11 3 -20 7 -20 9 0 2 9 4 20 4 11 0 20 -4 20 -9z m-8900
-31 c0 -5 -4 -10 -10 -10 -5 0 -10 5 -10 10 0 6 5 10 10 10 6 0 10 -4 10 -10z
m8820 0 c-20 -13 -43 -13 -35 0 3 6 16 10 28 10 18 0 19 -2 7 -10z m145 -19
c-3 -6 -14 -11 -23 -11 -15 1 -15 2 2 15 21 16 32 13 21 -4z m-8672 -6 c-3 -9
-8 -14 -10 -11 -3 3 -2 9 2 15 9 16 15 13 8 -4z m8567 -15 c-20 -13 -40 -13
-40 0 0 6 12 10 28 10 21 0 24 -2 12 -10z m-5575 -9 c-6 -6 -29 -14 -52 -19
-33 -8 -40 -7 -36 4 5 15 25 21 68 23 18 1 25 -3 20 -8z m5455 -11 c0 -5 -9
-10 -20 -10 -11 0 -20 5 -20 10 0 6 9 10 20 10 11 0 20 -4 20 -10z m169 -52
c-22 -8 -111 -22 -211 -33 -48 -5 -57 -4 -52 8 3 10 32 17 87 24 101 11 206
12 176 1z m-5659 -38 c0 -12 -77 -12 -105 0 -14 6 -2 9 43 9 35 1 62 -3 62 -9z
m5880 -100 c-17 -65 -25 -38 -9 32 10 45 15 55 17 36 2 -14 -2 -45 -8 -68z
m-7451 16 c9 -11 9 -16 0 -21 -10 -7 -28 10 -29 28 0 12 17 8 29 -7z m7490 7
c0 -5 -4 -17 -9 -28 -8 -18 -9 -17 -9 8 -1 15 4 27 9 27 6 0 10 -3 9 -7z
m-4179 -22 c0 -12 -20 -25 -27 -18 -7 7 6 27 18 27 5 0 9 -4 9 -9z m1004 -7
c4 -10 1 -14 -6 -12 -15 5 -23 28 -10 28 5 0 13 -7 16 -16z m3986 7 c0 -12
-20 -25 -27 -18 -7 7 6 27 18 27 5 0 9 -4 9 -9z m1000 -6 c0 -8 -4 -15 -10
-15 -5 0 -10 7 -10 15 0 8 5 15 10 15 6 0 10 -7 10 -15z m-10885 -15 c-3 -5
-10 -10 -16 -10 -5 0 -9 5 -9 10 0 6 7 10 16 10 8 0 12 -4 9 -10z m1565 -29
c5 -11 10 -25 10 -32 0 -18 -27 7 -33 31 -7 26 9 26 23 1z m-220 -49 c0 -21
-2 -22 -15 -12 -8 7 -15 27 -15 44 1 29 1 30 15 12 8 -11 15 -31 15 -44z m30
38 c0 -5 -4 -10 -10 -10 -5 0 -10 5 -10 10 0 6 5 10 10 10 6 0 10 -4 10 -10z
m-1370 -7 c0 -14 -41 -75 -46 -70 -8 8 24 77 35 77 6 0 11 -3 11 -7z m6716
-40 c-10 -10 -19 5 -10 18 6 11 8 11 12 0 2 -7 1 -15 -2 -18z m878 -32 c-4
-17 -9 -30 -11 -27 -3 2 -2 19 2 36 9 41 17 33 9 -9z m-3004 14 c-7 -8 -16
-15 -21 -15 -5 0 -6 7 -3 15 4 8 13 15 21 15 13 0 13 -3 3 -15z m4988 3 c-2
-6 -10 -14 -16 -16 -7 -2 -10 2 -6 12 7 18 28 22 22 4z m-2807 -45 c-9 -16
-10 -15 -11 8 0 14 3 29 8 33 12 12 14 -22 3 -41z m-6783 12 c-6 -14 -13 -23
-15 -21 -5 5 15 46 22 46 3 0 -1 -11 -7 -25z m9122 -9 c0 -24 -24 -53 -33 -39
-3 4 -3 20 0 36 7 33 33 36 33 3z m-9010 -6 c0 -5 -5 -10 -11 -10 -5 0 -7 5
-4 10 3 6 8 10 11 10 2 0 4 -4 4 -10z m6571 -53 c-8 -8 -11 -4 -11 14 0 33 14
47 18 19 2 -12 -1 -27 -7 -33z m-44 -18 c-3 -23 -11 -47 -18 -53 -9 -8 -10 -7
-5 7 3 10 6 34 6 53 0 19 5 34 11 34 8 0 10 -14 6 -41z m2522 10 c-13 -26 -20
-21 -12 9 3 12 9 19 14 16 5 -3 4 -14 -2 -25z m-2639 7 c0 -24 -17 -28 -23 -6
-3 13 0 20 9 20 8 0 14 -6 14 -14z m2506 -8 c-3 -13 -6 -31 -6 -40 0 -10 -4
-18 -10 -18 -11 0 -13 39 -4 64 9 25 27 19 20 -6z m1121 -50 c-3 -8 -6 -5 -6
6 -1 11 2 17 5 13 3 -3 4 -12 1 -19z m-2470 -10 c-3 -8 -6 -5 -6 6 -1 11 2 17
5 13 3 -3 4 -12 1 -19z m1515 -3 c-2 -14 -8 -25 -13 -25 -5 0 -9 11 -9 25 0
14 6 25 14 25 9 0 12 -8 8 -25z m845 19 c-3 -3 -12 -4 -19 -1 -8 3 -5 6 6 6
11 1 17 -2 13 -5z m-10002 -14 c-3 -5 -10 -10 -16 -10 -5 0 -9 5 -9 10 0 6 7
10 16 10 8 0 12 -4 9 -10z m9865 -14 c0 -8 -4 -18 -10 -21 -5 -3 -10 3 -10 14
0 12 5 21 10 21 6 0 10 -6 10 -14z m187 -3 c-3 -10 -19 -58 -35 -108 -48 -144
-94 -306 -89 -311 2 -2 28 64 57 148 29 84 57 154 61 156 5 2 17 23 28 47 18
41 37 62 47 52 3 -2 -4 -20 -15 -38 -44 -75 -221 -565 -221 -613 -1 -30 -83
-219 -98 -224 -7 -2 -10 2 -6 12 4 11 1 16 -10 16 -17 0 -20 -11 59 198 13 34
20 62 14 62 -14 0 -60 -106 -66 -152 -4 -28 -10 -38 -24 -38 -12 0 -21 -10
-25 -26 -4 -16 -12 -24 -23 -22 -19 4 -17 44 5 97 8 18 14 48 13 65 0 25 -7
14 -33 -53 -18 -47 -38 -87 -43 -88 -21 -7 -22 29 -2 69 23 45 20 55 -12 38
-20 -11 -21 -10 -17 14 7 35 3 33 -27 -14 -39 -61 -47 -39 -13 33 36 73 52
114 123 302 77 203 117 295 131 295 16 0 28 -35 18 -52 -4 -7 9 3 29 23 19 20
38 51 42 68 6 28 21 48 30 39 5 -5 -37 -125 -58 -165 -19 -36 -20 -43 -9 -43
4 0 14 15 20 34 7 19 19 37 27 40 8 3 15 15 15 26 0 11 7 20 15 20 11 0 14 -7
9 -25 -13 -51 13 -23 30 33 10 31 22 67 27 80 10 26 34 30 26 5z m-57 -13 c0
-5 -5 -10 -11 -10 -5 0 -7 5 -4 10 3 6 8 10 11 10 2 0 4 -4 4 -10z m-110 -40
c0 -5 -4 -10 -10 -10 -5 0 -10 5 -10 10 0 6 5 10 10 10 6 0 10 -4 10 -10z
m-859 -49 c250 10 543 4 534 -11 -3 -4 -64 -6 -137 -4 -146 4 -152 -1 -15 -11
48 -4 87 -11 87 -17 0 -6 -23 -8 -55 -6 -30 1 -55 0 -55 -4 0 -5 18 -8 39 -8
22 0 43 -4 46 -10 4 -6 -34 -10 -107 -10 -62 0 -119 -4 -127 -9 -8 -5 4 -7 32
-4 25 3 58 2 73 -1 65 -17 -11 -26 -211 -26 -115 0 -247 -3 -293 -7 l-83 -6
-20 -41 c-28 -55 -60 -148 -54 -154 3 -3 62 0 132 7 71 6 199 14 286 18 131 5
160 4 168 -8 6 -11 37 -14 144 -13 74 1 135 -2 135 -7 0 -5 -44 -10 -97 -10
-67 -1 -88 -4 -68 -9 17 -4 25 -8 18 -9 -7 0 -10 -8 -7 -16 5 -11 -1 -15 -26
-15 -17 0 -29 -4 -25 -9 6 -10 8 -10 -390 -41 -148 -11 -280 -23 -293 -26 -13
-4 -25 -17 -29 -33 -6 -26 -52 -144 -91 -232 -18 -42 -52 -73 -52 -47 0 7 -4
7 -14 -1 -10 -8 -21 -7 -45 5 -17 8 -31 16 -31 18 0 1 11 40 25 87 13 46 24
91 24 99 -1 21 -37 -80 -38 -106 -1 -27 -22 -45 -40 -34 -21 12 -7 103 29 191
40 100 40 102 -16 93 -34 -5 -45 -4 -40 5 4 6 17 11 29 11 40 0 68 12 63 26
-3 8 0 14 7 14 7 0 31 49 54 108 l42 107 -30 3 c-16 2 -29 7 -29 13 0 5 -9 9
-20 9 -30 0 -24 18 9 25 16 3 34 12 40 19 8 9 2 11 -22 10 -18 -1 -22 1 -9 3
12 2 20 8 17 13 -3 5 21 14 52 20 32 7 76 16 97 20 22 5 43 7 47 4 4 -2 11 1
14 7 4 5 13 8 21 5 7 -3 16 -1 20 5 4 7 10 7 18 0 8 -7 95 -7 267 0z m1879
-10 c0 -5 97 -7 220 -4 242 4 270 -2 150 -37 -16 -5 -19 -8 -7 -9 28 -2 19
-21 -10 -22 -17 -1 -21 -3 -10 -6 24 -6 21 -19 -5 -27 -13 -3 -96 -8 -185 -10
-89 -2 -166 -7 -172 -10 -17 -11 -78 -215 -116 -390 -44 -201 -43 -196 -60
-173 -12 17 -14 17 -29 -5 -11 -15 -16 -17 -16 -8 -1 12 -3 11 -11 -2 -5 -10
-17 -18 -24 -18 -8 0 -15 -5 -15 -11 0 -6 -7 -8 -15 -5 -10 4 -20 -3 -27 -19
-6 -14 -15 -25 -20 -25 -11 0 -10 7 2 30 9 18 8 19 -18 14 -50 -10 -49 28 3
161 13 33 42 134 65 225 22 91 43 174 47 184 5 18 1 18 -43 12 -141 -20 -280
-34 -289 -28 -5 4 8 10 30 13 33 5 29 6 -27 8 -38 0 -68 5 -68 11 0 6 -7 10
-16 10 -8 0 -13 4 -10 9 3 5 -4 12 -17 15 -21 7 -22 7 -2 16 11 6 123 23 248
39 127 16 235 35 243 42 13 10 17 10 23 0 9 -15 97 -5 107 11 4 6 10 5 15 -3
7 -12 11 -11 26 4 19 18 33 22 33 8z m527 -27 c-3 -3 -12 -4 -19 -1 -8 3 -5 6
6 6 11 1 17 -2 13 -5z m-1894 -51 c-7 -2 -21 -2 -30 0 -10 3 -4 5 12 5 17 0
24 -2 18 -5z m1820 -10 c-7 -2 -21 -2 -30 0 -10 3 -4 5 12 5 17 0 24 -2 18 -5z
m-1290 -70 c-7 -2 -19 -2 -25 0 -7 3 -2 5 12 5 14 0 19 -2 13 -5z m150 -10
c-7 -2 -19 -2 -25 0 -7 3 -2 5 12 5 14 0 19 -2 13 -5z m-126 -19 c-3 -3 -12
-4 -19 -1 -8 3 -5 6 6 6 11 1 17 -2 13 -5z m-4377 -214 c121 -62 131 -242 19
-317 -46 -30 -121 -41 -172 -24 -74 25 -137 131 -122 204 28 130 160 196 275
137z m-420 -165 l0 -85 -2675 0 -2675 0 0 85 0 85 2675 0 2675 0 0 -85z m2950
0 l0 -85 -1155 0 -1155 0 0 85 0 85 1155 0 1155 0 0 -85z m1340 -102 c-11 -17
-11 -17 -6 0 3 10 6 24 7 30 0 9 2 9 5 0 3 -7 0 -20 -6 -30z m40 13 c0 -3 -4
-8 -10 -11 -5 -3 -10 -1 -10 4 0 6 5 11 10 11 6 0 10 -2 10 -4z m-1240 -75 c0
-6 -4 -13 -10 -16 -5 -3 -10 1 -10 9 0 9 5 16 10 16 6 0 10 -4 10 -9z m2340
-1 c0 -5 -5 -10 -11 -10 -5 0 -7 5 -4 10 3 6 8 10 11 10 2 0 4 -4 4 -10z
m-1070 -9 c0 -12 -20 -25 -27 -18 -7 7 6 27 18 27 5 0 9 -4 9 -9z m982 -23
c-7 -7 -12 -8 -12 -2 0 14 12 26 19 19 2 -3 -1 -11 -7 -17z m-1070 -30 c-8 -8
-9 -4 -5 13 4 13 8 18 11 10 2 -7 -1 -18 -6 -23z m938 22 c0 -5 -4 -10 -10
-10 -5 0 -10 5 -10 10 0 6 5 10 10 10 6 0 10 -4 10 -10z m100 3 c0 -5 -5 -15
-10 -23 -8 -12 -10 -11 -10 8 0 12 5 22 10 22 6 0 10 -3 10 -7z m-890 -27 c0
-3 -4 -8 -10 -11 -5 -3 -10 -1 -10 4 0 6 5 11 10 11 6 0 10 -2 10 -4z"/>
<path d="M5154 6757 c-48 -73 -194 -249 -288 -346 -180 -185 -392 -357 -662
-534 -175 -115 -178 -119 -209 -328 -33 -222 -75 -583 -75 -643 0 -67 24 -110
92 -167 97 -81 196 -130 297 -149 59 -10 809 4 839 16 22 10 22 11 -20 41 -52
38 -184 171 -231 233 -64 84 -124 184 -229 380 -140 259 -242 422 -278 445 -5
3 -14 14 -20 25 -9 16 33 57 313 311 177 161 346 315 375 341 32 28 66 50 87
54 27 5 119 -19 427 -112 216 -64 395 -119 397 -121 9 -6 -45 -57 -121 -113
-102 -77 -240 -143 -488 -233 -207 -76 -320 -122 -320 -131 0 -3 11 -35 24
-73 13 -37 48 -135 76 -218 132 -380 262 -512 524 -531 44 -3 100 -12 123 -20
56 -20 114 -87 143 -164 23 -62 71 -115 113 -125 33 -9 1364 -1 1373 7 4 4
-15 32 -43 61 -88 93 -102 138 -114 372 -22 439 -97 1258 -125 1368 -8 34 -33
119 -55 190 -33 106 -43 127 -60 127 -17 0 -19 -5 -14 -37 13 -91 35 -316 32
-319 -33 -33 -669 -41 -872 -11 -278 42 -541 108 -845 212 -91 32 -167 58
-168 60 -2 2 4 38 13 80 10 42 16 78 14 80 -3 2 -14 -11 -25 -28z"/>
<path d="M10357 2628 c-37 -212 -47 -282 -44 -292 3 -6 7 5 10 24 3 19 16 93
28 163 12 70 19 130 17 133 -3 2 -8 -10 -11 -28z"/>
<path d="M10302 2300 c0 -14 2 -19 5 -12 2 6 2 18 0 25 -3 6 -5 1 -5 -13z"/>
<path d="M2197 3266 c-20 -25 -37 -48 -37 -53 0 -8 21 16 61 70 31 42 17 32
-24 -17z"/>
<path d="M1634 2837 c-93 -136 -144 -219 -144 -234 0 -9 156 218 208 304 65
105 25 62 -64 -70z"/>
<path d="M1948 2863 c-9 -10 -29 -38 -44 -63 -16 -25 -67 -99 -114 -165 -93
-130 -153 -225 -147 -231 4 -4 460 16 465 21 2 2 -13 56 -33 121 -20 66 -50
164 -67 219 -16 55 -33 103 -37 108 -4 4 -15 -1 -23 -10z"/>
<path d="M1672 2538 c-78 -105 -98 -138 -83 -138 6 0 41 46 79 103 80 120 85
127 78 127 -2 0 -36 -42 -74 -92z"/>
<path d="M1396 2393 c-6 -14 -5 -15 5 -6 7 7 10 15 7 18 -3 3 -9 -2 -12 -12z"/>
<path d="M1898 2393 c7 -3 16 -2 19 1 4 3 -2 6 -13 5 -11 0 -14 -3 -6 -6z"/>
<path d="M1948 2393 c7 -3 16 -2 19 1 4 3 -2 6 -13 5 -11 0 -14 -3 -6 -6z"/>
<path d="M1850 2369 c-185 -13 -196 -17 -32 -11 85 3 168 8 185 12 l32 8 -35
0 c-19 -1 -87 -5 -150 -9z"/>
<path d="M1613 2343 c9 -2 25 -2 35 0 9 3 1 5 -18 5 -19 0 -27 -2 -17 -5z"/>
<path d="M2198 2333 c7 -3 16 -2 19 1 4 3 -2 6 -13 5 -11 0 -14 -3 -6 -6z"/>
<path d="M2208 2293 c7 -3 16 -2 19 1 4 3 -2 6 -13 5 -11 0 -14 -3 -6 -6z"/>
<path d="M1685 2250 c-77 -10 -126 -18 -109 -19 33 -1 343 28 359 34 25 9
-124 0 -250 -15z"/>
<path d="M2234 2173 c3 -10 12 -45 21 -77 14 -57 33 -96 22 -46 -3 14 -11 51
-17 83 -6 31 -16 57 -21 57 -6 0 -8 -8 -5 -17z"/>
<path d="M2303 2145 c7 -44 45 -167 46 -148 1 19 -37 175 -45 182 -4 3 -4 -12
-1 -34z"/>
<path d="M1282 1973 c-27 -39 -92 -158 -92 -169 0 -5 18 23 41 61 22 39 50 85
61 103 24 39 17 43 -10 5z"/>
<path d="M2346 1968 c-4 -9 -2 -26 4 -38 16 -30 20 -22 11 20 -6 26 -10 31
-15 18z"/>
<path d="M1145 1874 c-9 -14 -14 -28 -12 -31 3 -3 13 9 22 26 19 38 14 41 -10
5z"/>
<path d="M6515 3240 c20 -68 40 -120 47 -120 11 0 10 6 -7 47 -8 19 -15 43
-15 53 0 10 -7 24 -16 31 -15 12 -16 11 -9 -11z"/>
<path d="M6417 2993 c-13 -12 -7 -33 8 -33 8 0 15 9 15 20 0 20 -11 26 -23 13z"/>
<path d="M6325 2784 c-9 -14 -14 -28 -12 -31 3 -3 13 9 22 26 19 38 14 41 -10
5z"/>
<path d="M6359 2618 c-130 -216 -132 -219 -127 -223 2 -3 58 2 123 10 66 8
145 15 177 15 32 0 58 1 58 3 0 1 -25 72 -56 157 -30 85 -58 163 -61 173 -3 9
-9 17 -13 17 -5 0 -50 -69 -101 -152z"/>
<path d="M6641 2740 c6 -16 15 -32 20 -35 4 -3 3 8 -2 25 -6 16 -15 32 -20 35
-4 3 -3 -8 2 -25z"/>
<path d="M6760 2720 c0 -5 5 -10 11 -10 5 0 7 5 4 10 -3 6 -8 10 -11 10 -2 0
-4 -4 -4 -10z"/>
<path d="M6210 2525 c-38 -57 -70 -110 -70 -117 0 -19 14 0 68 87 26 44 56 92
66 108 10 15 16 27 12 27 -3 0 -37 -47 -76 -105z"/>
<path d="M6540 2616 c0 -12 43 -122 51 -130 15 -16 10 9 -12 68 -17 47 -39 81
-39 62z"/>
<path d="M6729 2500 c12 -30 21 -56 21 -57 0 -2 4 -3 10 -3 5 0 0 21 -11 48
-29 68 -44 77 -20 12z"/>
<path d="M6056 2420 c-28 -43 -35 -68 -10 -35 19 24 46 75 41 75 -3 0 -16 -18
-31 -40z"/>
<path d="M5953 2423 c-41 -59 -64 -103 -55 -103 11 0 85 120 78 127 -2 2 -13
-8 -23 -24z"/>
<path d="M6786 2372 c-3 -6 -1 -14 5 -17 14 -9 20 -2 10 14 -6 8 -11 9 -15 3z"/>
<path d="M6660 2350 c0 -5 5 -10 11 -10 5 0 7 5 4 10 -3 6 -8 10 -11 10 -2 0
-4 -4 -4 -10z"/>
<path d="M6323 2331 c-61 -9 -115 -19 -119 -23 -10 -11 16 -10 141 7 61 8 118
15 128 15 9 0 17 5 17 10 0 13 -28 11 -167 -9z"/>
<path d="M6721 2180 c0 -8 4 -22 9 -30 12 -18 12 -2 0 25 -6 13 -9 15 -9 5z"/>
<path d="M6068 2113 c7 -3 16 -2 19 1 4 3 -2 6 -13 5 -11 0 -14 -3 -6 -6z"/>
<path d="M11500 3258 c0 -23 43 -138 51 -138 7 0 8 7 4 18 -5 9 -13 36 -19 59
-10 36 -36 80 -36 61z"/>
<path d="M11407 2993 c-13 -12 -7 -33 8 -33 8 0 15 9 15 20 0 20 -11 26 -23
13z"/>
<path d="M11635 2980 c3 -5 8 -10 11 -10 2 0 4 5 4 10 0 6 -5 10 -11 10 -5 0
-7 -4 -4 -10z"/>
<path d="M11314 2785 c-9 -14 -15 -28 -12 -30 2 -2 12 9 22 25 21 36 13 40
-10 5z"/>
<path d="M11426 2748 c-58 -91 -206 -342 -206 -350 0 -6 12 -8 29 -5 31 6 216
25 286 30 22 1 39 7 38 12 -9 39 -119 335 -125 335 -4 0 -14 -10 -22 -22z"/>
<path d="M11632 2740 c14 -43 18 -49 18 -24 0 11 -7 29 -15 40 -13 17 -14 16
-3 -16z"/>
<path d="M11194 2521 c-36 -55 -64 -105 -62 -112 2 -7 26 23 52 67 27 43 57
94 68 112 11 17 17 32 14 32 -3 0 -35 -45 -72 -99z"/>
<path d="M11536 2593 c8 -34 41 -113 47 -113 8 0 -9 64 -28 103 -21 44 -28 48
-19 10z"/>
<path d="M11718 2500 c10 -30 24 -56 30 -58 7 -2 3 17 -9 45 -30 69 -42 77
-21 13z"/>
<path d="M11045 2423 c-24 -35 -36 -69 -17 -47 16 17 54 84 48 84 -3 0 -17
-17 -31 -37z"/>
<path d="M10938 2418 c-42 -58 -60 -90 -53 -96 4 -4 11 0 16 8 71 117 87 154
37 88z"/>
<path d="M11770 2366 c0 -9 5 -16 10 -16 6 0 10 4 10 9 0 6 -4 13 -10 16 -5 3
-10 -1 -10 -9z"/>
<path d="M11650 2350 c0 -5 5 -10 11 -10 5 0 7 5 4 10 -3 6 -8 10 -11 10 -2 0
-4 -4 -4 -10z"/>
<path d="M11705 2350 c3 -5 8 -10 11 -10 2 0 4 5 4 10 0 6 -5 10 -11 10 -5 0
-7 -4 -4 -10z"/>
<path d="M11308 2331 c-59 -9 -110 -19 -114 -23 -11 -11 5 -10 154 9 72 9 132
20 132 25 0 11 -47 8 -172 -11z"/>
<path d="M11706 2175 c4 -8 8 -15 10 -15 2 0 4 7 4 15 0 8 -4 15 -10 15 -5 0
-7 -7 -4 -15z"/>
<path d="M11058 2113 c7 -3 16 -2 19 1 4 3 -2 6 -13 5 -11 0 -14 -3 -6 -6z"/>
<path d="M3251 3057 c-12 -30 -26 -155 -18 -146 9 7 38 161 32 167 -2 3 -9 -7
-14 -21z"/>
<path d="M3095 2373 c-9 -54 -19 -107 -21 -118 -4 -18 -4 -18 6 -3 10 17 49
178 50 206 0 6 -4 12 -9 12 -5 0 -16 -44 -26 -97z"/>
<path d="M3298 2033 c7 -3 16 -2 19 1 4 3 -2 6 -13 5 -11 0 -14 -3 -6 -6z"/>
<path d="M3737 1993 c18 -2 50 -2 70 0 21 2 7 4 -32 4 -38 0 -55 -2 -38 -4z"/>
<path d="M3538 1983 c12 -2 32 -2 45 0 12 2 2 4 -23 4 -25 0 -35 -2 -22 -4z"/>
<path d="M3277 1963 c-59 -9 -106 -18 -103 -20 3 -3 42 0 88 6 131 17 173 18
171 4 -2 -7 2 -13 7 -13 6 0 10 6 10 14 0 8 8 17 18 19 40 11 -92 3 -191 -10z"/>
<path d="M3128 1933 c6 -2 18 -2 25 0 6 3 1 5 -13 5 -14 0 -19 -2 -12 -5z"/>
<path d="M3383 1933 c9 -2 23 -2 30 0 6 3 -1 5 -18 5 -16 0 -22 -2 -12 -5z"/>
<path d="M3273 1923 c9 -2 25 -2 35 0 9 3 1 5 -18 5 -19 0 -27 -2 -17 -5z"/>
<path d="M3175 1910 c-27 -7 -27 -8 -5 -8 14 0 39 4 55 8 27 7 27 8 5 8 -14 0
-38 -4 -55 -8z"/>
<path d="M3423 1903 c9 -2 25 -2 35 0 9 3 1 5 -18 5 -19 0 -27 -2 -17 -5z"/>
<path d="M3108 1893 c6 -2 18 -2 25 0 6 3 1 5 -13 5 -14 0 -19 -2 -12 -5z"/>
<path d="M3280 1887 c-36 -6 -56 -12 -45 -14 11 -2 54 3 95 11 87 16 46 19
-50 3z"/>
<path d="M3362 1875 c-146 -26 -172 -33 -127 -34 42 -1 268 39 280 50 12 12 4
11 -153 -16z"/>
<path d="M3188 1863 c7 -3 16 -2 19 1 4 3 -2 6 -13 5 -11 0 -14 -3 -6 -6z"/>
<path d="M2840 1812 c0 -4 16 -6 35 -4 19 2 35 6 35 8 0 2 -16 4 -35 4 -19 0
-35 -4 -35 -8z"/>
<path d="M2956 1764 c-6 -15 10 -154 19 -162 10 -10 20 73 17 141 -2 38 -24
52 -36 21z"/>
<path d="M9604 3228 c59 -7 100 -7 120 0 24 8 4 10 -89 10 l-120 -1 89 -9z"/>
<path d="M9223 3193 c20 -2 54 -2 75 0 20 2 3 4 -38 4 -41 0 -58 -2 -37 -4z"/>
<path d="M9420 3139 c-36 -5 -130 -16 -209 -24 -80 -8 -149 -19 -155 -25 -14
-14 -4 -13 202 9 97 11 223 23 278 26 56 4 116 11 135 15 46 11 -165 10 -251
-1z"/>
<path d="M9524 3100 c-132 -9 -192 -19 -200 -31 -6 -10 71 -7 186 6 25 3 83 6
130 6 116 1 200 9 200 20 0 10 -165 10 -316 -1z"/>
<path d="M8977 2980 c-11 -27 -57 -293 -51 -299 9 -9 24 22 24 50 0 14 9 72
21 128 19 93 22 160 6 121z"/>
<path d="M8901 2704 c0 -11 3 -14 6 -6 3 7 2 16 -1 19 -3 4 -6 -2 -5 -13z"/>
<path d="M9300 2660 c-21 -4 30 -8 125 -8 98 0 152 3 140 8 -24 10 -216 10
-265 0z"/>
<path d="M9398 2523 c6 -2 18 -2 25 0 6 3 1 5 -13 5 -14 0 -19 -2 -12 -5z"/>
<path d="M8665 2398 c-11 -34 -56 -331 -51 -336 3 -3 6 -1 6 4 1 5 16 84 34
177 18 92 29 167 24 167 -5 0 -10 -6 -13 -12z"/>
<path d="M9105 2089 c-71 -4 -148 -12 -170 -18 -37 -10 -36 -10 20 -5 33 2
114 7 180 11 66 3 145 9 175 13 l55 8 -65 -1 c-36 0 -123 -4 -195 -8z"/>
<path d="M8680 1814 c0 -8 5 -12 10 -9 6 3 10 10 10 16 0 5 -4 9 -10 9 -5 0
-10 -7 -10 -16z"/>
<path d="M8681 1774 c0 -11 3 -14 6 -6 3 7 2 16 -1 19 -3 4 -6 -2 -5 -13z"/>
<path d="M8033 3183 c9 -2 25 -2 35 0 9 3 1 5 -18 5 -19 0 -27 -2 -17 -5z"/>
<path d="M7568 3133 c7 -3 16 -2 19 1 4 3 -2 6 -13 5 -11 0 -14 -3 -6 -6z"/>
<path d="M8328 3093 c7 -3 16 -2 19 1 4 3 -2 6 -13 5 -11 0 -14 -3 -6 -6z"/>
<path d="M8233 3083 c15 -2 39 -2 55 0 15 2 2 4 -28 4 -30 0 -43 -2 -27 -4z"/>
<path d="M8163 3073 c9 -2 23 -2 30 0 6 3 -1 5 -18 5 -16 0 -22 -2 -12 -5z"/>
<path d="M8343 3053 c9 -2 23 -2 30 0 6 3 -1 5 -18 5 -16 0 -22 -2 -12 -5z"/>
<path d="M7650 3020 c-21 -7 -21 -8 -5 -9 11 0 27 4 35 9 18 11 5 11 -30 0z"/>
<path d="M7288 2993 c7 -3 16 -2 19 1 4 3 -2 6 -13 5 -11 0 -14 -3 -6 -6z"/>
<path d="M7380 2974 c-64 -14 -91 -23 -70 -23 39 -1 153 24 179 39 21 12 16
11 -109 -16z"/>
<path d="M7892 2810 c0 -14 2 -19 5 -12 2 6 2 18 0 25 -3 6 -5 1 -5 -13z"/>
<path d="M7856 2593 c-29 -194 -37 -256 -33 -260 5 -5 32 138 47 247 6 47 13
93 15 103 2 9 0 17 -5 17 -4 0 -15 -48 -24 -107z"/>
<path d="M7672 2415 c0 -16 2 -22 5 -12 2 9 2 23 0 30 -3 6 -5 -1 -5 -18z"/>
<path d="M7661 2353 c0 -11 -14 -95 -31 -185 -29 -160 -37 -221 -20 -165 16
53 61 337 57 355 -4 13 -5 12 -6 -5z"/>
<path d="M7812 2290 c0 -14 2 -19 5 -12 2 6 2 18 0 25 -3 6 -5 1 -5 -13z"/>
<path d="M5407 2998 c-7 -4 18 -8 56 -8 39 0 67 4 67 10 0 12 -104 9 -123 -2z"/>
<path d="M4739 2663 c-48 -52 -71 -87 -28 -43 43 45 73 80 68 80 -3 0 -21 -17
-40 -37z"/>
<path d="M4502 2438 c-16 -21 -42 -76 -42 -90 0 -15 20 15 43 65 17 38 17 47
-1 25z"/>
<path d="M4577 2293 c-4 -3 -7 -16 -6 -27 0 -19 1 -19 10 3 10 24 8 36 -4 24z"/>
<path d="M4386 2182 c-3 -6 -9 -42 -11 -79 l-5 -68 15 70 c15 69 15 100 1 77z"/>
<path d="M4460 2072 c0 -22 5 -44 10 -47 7 -4 8 8 4 37 -9 57 -14 61 -14 10z"/>
<path d="M4629 1990 c25 -21 41 -26 41 -11 0 5 -15 14 -32 20 l-33 11 24 -20z"/>
<path d="M4520 1900 c0 -5 5 -10 11 -10 5 0 7 5 4 10 -3 6 -8 10 -11 10 -2 0
-4 -4 -4 -10z"/>
<path d="M4635 1870 c-3 -5 1 -10 10 -10 9 0 13 5 10 10 -3 6 -8 10 -10 10 -2
0 -7 -4 -10 -10z"/>
<path d="M10871 1089 c-7 -22 -11 -43 -8 -45 2 -2 9 14 16 37 7 22 11 43 8 45
-2 2 -9 -14 -16 -37z"/>
<path d="M10847 1008 c-4 -14 -9 -34 -13 -45 -3 -10 2 -5 11 10 9 16 15 36 13
45 -3 12 -6 9 -11 -10z"/>
<path d="M9696 1265 c-9 -26 -7 -32 5 -12 6 10 9 21 6 23 -2 3 -7 -2 -11 -11z"/>
<path d="M9651 1129 c-6 -18 -11 -37 -10 -43 0 -6 7 7 15 28 8 22 12 41 10 43
-2 2 -9 -10 -15 -28z"/>
<path d="M9948 1083 c18 -2 45 -2 60 0 15 2 0 4 -33 4 -33 0 -45 -2 -27 -4z"/>
<path d="M10133 1053 c15 -2 37 -2 50 0 12 2 0 4 -28 4 -27 0 -38 -2 -22 -4z"/>
<path d="M10028 1043 c12 -2 30 -2 40 0 9 3 -1 5 -23 4 -22 0 -30 -2 -17 -4z"/>
<path d="M9903 1013 c15 -2 39 -2 55 0 15 2 2 4 -28 4 -30 0 -43 -2 -27 -4z"/>
<path d="M9798 1003 c12 -2 32 -2 45 0 12 2 2 4 -23 4 -25 0 -35 -2 -22 -4z"/>
<path d="M9708 993 c12 -2 30 -2 40 0 9 3 -1 5 -23 4 -22 0 -30 -2 -17 -4z"/>
<path d="M12133 1323 c9 -2 23 -2 30 0 6 3 -1 5 -18 5 -16 0 -22 -2 -12 -5z"/>
<path d="M11468 1273 c6 -2 18 -2 25 0 6 3 1 5 -13 5 -14 0 -19 -2 -12 -5z"/>
<path d="M11378 1263 c12 -2 30 -2 40 0 9 3 -1 5 -23 4 -22 0 -30 -2 -17 -4z"/>
<path d="M11826 1142 c-7 -12 -45 -166 -42 -170 5 -4 33 80 45 136 8 40 8 51
-3 34z"/>
<path d="M11648 965 c-9 -33 -24 -82 -32 -110 -9 -27 -12 -45 -7 -40 12 13 63
185 58 199 -2 6 -11 -17 -19 -49z"/>
</g>
</svg>
